<svg id="Layer_1" data-name="Layer 1" xmlns="http://www.w3.org/2000/svg" viewBox="0 0 379.33 343.33"><defs><style>.cls-1{fill:#fff;}.cls-2{fill:#f8c647;}.cls-3{isolation:isolate;}</style></defs><g id="Rectangle_47" data-name="Rectangle 47"><rect class="cls-1" x="48.72" y="288.49" width="22.69" height="22.69"/></g><g id="Rectangle_48" data-name="Rectangle 48"><rect class="cls-2" x="197.96" y="288.49" width="22.69" height="22.69"/></g><g id="Household_income" data-name="Household income" class="cls-3"><g class="cls-3"><path class="cls-1" d="M240.14,305.08v-5.94h-6.82v5.94h-1.21V292.34h1.21V298h6.82v-5.67h1.22v12.74Z"/><path class="cls-1" d="M247,305.29a3.77,3.77,0,1,1,3.72-3.83A3.7,3.7,0,0,1,247,305.29Zm0-6.48a2.72,2.72,0,1,0,2.57,2.69A2.51,2.51,0,0,0,247,298.81Z"/><path class="cls-1" d="M257.18,305.08v-1a2.54,2.54,0,0,1-2.24,1.24,2.4,2.4,0,0,1-2.61-2.6V298h1.13v4.53a1.63,1.63,0,0,0,1.68,1.77,2.15,2.15,0,0,0,2-2.19V298h1.13v7.12Z"/><path class="cls-1" d="M262.57,305.27a4.14,4.14,0,0,1-2.51-.84l.61-.87a3.28,3.28,0,0,0,1.87.68c.68,0,1.36-.4,1.36-1,0-.79-.72-1-1.57-1.34s-2.11-.86-2.11-2.19a2.13,2.13,0,0,1,2.32-1.93,3.77,3.77,0,0,1,2.28.71l-.52.87a3,3,0,0,0-1.76-.57c-.56,0-1.19.26-1.19.89s.59.89,1.47,1.19c1,.38,2.23.87,2.23,2.33A2.32,2.32,0,0,1,262.57,305.27Z"/><path class="cls-1" d="M267.46,301.55a2.51,2.51,0,0,0,2.53,2.69,3.39,3.39,0,0,0,2.43-1l.73.72a4.3,4.3,0,0,1-3.2,1.31,3.57,3.57,0,0,1-3.64-3.86,3.52,3.52,0,0,1,3.56-3.68c2.21,0,3.38,1.76,3.42,3.8Zm2.36-2.77a2.2,2.2,0,0,0-2.31,1.86H272A2.17,2.17,0,0,0,269.82,298.78Z"/><path class="cls-1" d="M279.76,305.08v-4.54a1.6,1.6,0,0,0-1.65-1.75,2.09,2.09,0,0,0-2.05,2.17v4.12h-1.13V292.34h1.13V299a2.53,2.53,0,0,1,2.2-1.24,2.46,2.46,0,0,1,2.64,2.6v4.73Z"/><path class="cls-1" d="M286.13,305.29a3.77,3.77,0,1,1,3.72-3.83A3.69,3.69,0,0,1,286.13,305.29Zm0-6.48a2.72,2.72,0,1,0,2.56,2.69A2.52,2.52,0,0,0,286.12,298.81Z"/><path class="cls-1" d="M291.55,305.08V292.34h1.13v12.74Z"/><path class="cls-1" d="M300.08,305.08v-1.16a2.87,2.87,0,0,1-2.46,1.37c-2,0-3.25-1.75-3.25-3.77,0-2.26,1.47-3.77,3.34-3.77a2.74,2.74,0,0,1,2.37,1.36v-6.77h1.13v12.74Zm-2.27-6.27c-1.39,0-2.27,1.14-2.27,2.71s.79,2.72,2.25,2.72a2.75,2.75,0,0,0,0-5.43Z"/><path class="cls-1" d="M306.56,296.14v-1.67h1.13v1.67Zm0,8.94V298h1.13v7.12Z"/><path class="cls-1" d="M314.74,305.08v-4.54a1.59,1.59,0,0,0-1.67-1.75A2.1,2.1,0,0,0,311,301v4.12h-1.13V298H311v1a2.52,2.52,0,0,1,2.22-1.24,2.46,2.46,0,0,1,2.64,2.6v4.73Z"/><path class="cls-1" d="M321,305.29a3.56,3.56,0,0,1-3.61-3.79,3.6,3.6,0,0,1,3.53-3.75,3.65,3.65,0,0,1,3.05,1.5l-.86.66a2.57,2.57,0,0,0-2.12-1.1,2.73,2.73,0,0,0,0,5.43,2.79,2.79,0,0,0,2.32-1.31l.82.61A3.83,3.83,0,0,1,321,305.29Z"/><path class="cls-1" d="M328.84,305.29a3.77,3.77,0,1,1,3.72-3.83A3.69,3.69,0,0,1,328.84,305.29Zm0-6.48a2.72,2.72,0,1,0,2.56,2.69A2.52,2.52,0,0,0,328.83,298.81Z"/><path class="cls-1" d="M343.45,305.08v-4.63c0-1-.54-1.66-1.43-1.66a2,2,0,0,0-2,2v4.31h-1.14v-4.63c0-1-.49-1.66-1.46-1.66a2,2,0,0,0-2,2v4.3h-1.13V298h1.13v1a2.56,2.56,0,0,1,2.16-1.17,2.17,2.17,0,0,1,2.2,1.29,3.08,3.08,0,0,1,2.45-1.29,2.27,2.27,0,0,1,2.4,2.56v4.77Z"/><path class="cls-1" d="M347.29,301.55a2.51,2.51,0,0,0,2.53,2.69,3.37,3.37,0,0,0,2.43-1l.73.72a4.28,4.28,0,0,1-3.19,1.31,3.57,3.57,0,0,1-3.65-3.86,3.52,3.52,0,0,1,3.56-3.68c2.22,0,3.39,1.76,3.42,3.8Zm2.36-2.77a2.19,2.19,0,0,0-2.3,1.86h4.5A2.19,2.19,0,0,0,349.65,298.78Z"/></g></g><g id="Rent" class="cls-3"><g class="cls-3"><path class="cls-1" d="M88.21,305.08l-5.32-6v6H81.68V292.34h3.56a3.65,3.65,0,1,1,0,7.27H85l4.83,5.47ZM85.1,293.45H82.89v5.15H85c1.7,0,3-.92,3-2.67A2.6,2.6,0,0,0,85.1,293.45Z"/><path class="cls-1" d="M91.63,301.55a2.51,2.51,0,0,0,2.53,2.69,3.37,3.37,0,0,0,2.43-1l.73.72a4.28,4.28,0,0,1-3.19,1.31,3.57,3.57,0,0,1-3.65-3.86A3.52,3.52,0,0,1,94,297.75c2.22,0,3.39,1.76,3.42,3.8ZM94,298.78a2.19,2.19,0,0,0-2.3,1.86h4.5A2.19,2.19,0,0,0,94,298.78Z"/><path class="cls-1" d="M104,305.08v-4.54a1.59,1.59,0,0,0-1.68-1.75,2.1,2.1,0,0,0-2,2.17v4.12H99.1V298h1.14v1a2.5,2.5,0,0,1,2.21-1.24,2.46,2.46,0,0,1,2.64,2.6v4.73Z"/><path class="cls-1" d="M109.45,305.13c-1.27,0-2.07-.51-2.07-1.92V299h-1v-1h1v-3.34h1.13V298h1.35v1h-1.35v4.19c0,.56.3.87,1,.87h.38v1.05Z"/></g></g><g id="Group_49" data-name="Group 49"><g id="Group_37" data-name="Group 37"><g id="Path_231" data-name="Path 231"><path class="cls-2" d="M47.71,141l14.64,20.61L77.11,182.4,91.9,196.28,107.59,211l16-7.48,13.73-6.44,13.43,6.29,14.63,13.74,14.44,6.78,15.34,21.6,16.56-7.77,14.88-14,15-14,14.64-34.34,14.31-13.43L285.1,148.2l-2.93-3.11-14.63,13.74-15,14-14.63,34.35-14.31,13.43-14.39,13.5-12.72,6L182.6,220.51l-14.84-7-14.64-13.74-15.85-7.44-15.54,7.29-13.33,6.26L94.82,193.17,80.34,179.58,65.83,159.15,51.19,138.54Z"/><path class="cls-2" d="M195,246.05l-.22-.3-15.27-21.51-14.4-6.75-.05-.05-14.58-13.69-13.18-6.18-29.76,14L76.75,182.65,47.11,140.91l4.19-3,29.37,41.36,27.82,26.11,28.78-13.51,16.15,7.6L168,213.18l14.87,7,13.79,19.41L209,233.79,237.57,207l14.64-34.34.07-.07,29.91-28.08,3.52,3.75-29.19,27.4L241.88,210l-.07.06-29.9,28.06Zm-29.39-29.29,14.48,6.79L195.25,245l16.17-7.59,29.73-27.9,14.63-34.35.07-.06,28.63-26.87-2.33-2.47-29.21,27.42L238.3,207.47l-.06.06-28.75,27-13.11,6.15-14.07-19.81-14.8-7,0,0-14.59-13.69-15.6-7.32-29,13.59L80,179.83l-28.9-40.68-2.77,2,29.12,41,30.24,28.38,29.59-13.89L151,203.07Z"/></g></g><g id="Group_48" data-name="Group 48"><g id="Group_32" data-name="Group 32"><g id="Line_1" data-name="Line 1"><rect class="cls-1" x="42.14" y="139.56" width="263.45" height="0.44"/></g><g id="Group_31" data-name="Group 31"><g id="Group_30" data-name="Group 30"><g id="Line_2" data-name="Line 2"><rect class="cls-1" x="41.92" y="134.62" width="0.44" height="5.15"/></g><g id="Line_3" data-name="Line 3"><rect class="cls-1" x="56.55" y="134.62" width="0.44" height="5.15"/></g><g id="Line_4" data-name="Line 4"><rect class="cls-1" x="71.19" y="134.62" width="0.44" height="5.15"/></g><g id="Line_5" data-name="Line 5"><rect class="cls-1" x="85.83" y="134.62" width="0.44" height="5.15"/></g><g id="Line_6" data-name="Line 6"><rect class="cls-1" x="100.46" y="134.62" width="0.44" height="5.15"/></g><g id="Line_7" data-name="Line 7"><rect class="cls-1" x="115.1" y="134.62" width="0.44" height="5.15"/></g><g id="Line_8" data-name="Line 8"><rect class="cls-1" x="129.74" y="134.62" width="0.44" height="5.15"/></g><g id="Line_9" data-name="Line 9"><rect class="cls-1" x="144.37" y="134.62" width="0.44" height="5.15"/></g><g id="Line_10" data-name="Line 10"><rect class="cls-1" x="159.01" y="134.62" width="0.44" height="5.15"/></g><g id="Line_11" data-name="Line 11"><rect class="cls-1" x="173.64" y="134.62" width="0.44" height="5.15"/></g><g id="Line_12" data-name="Line 12"><rect class="cls-1" x="188.28" y="134.62" width="0.44" height="5.15"/></g><g id="Line_13" data-name="Line 13"><rect class="cls-1" x="202.92" y="134.62" width="0.44" height="5.15"/></g><g id="Line_14" data-name="Line 14"><rect class="cls-1" x="217.55" y="134.62" width="0.44" height="5.15"/></g><g id="Line_15" data-name="Line 15"><rect class="cls-1" x="232.19" y="134.62" width="0.44" height="5.15"/></g><g id="Line_16" data-name="Line 16"><rect class="cls-1" x="246.83" y="134.62" width="0.44" height="5.15"/></g><g id="Line_17" data-name="Line 17"><rect class="cls-1" x="261.46" y="134.62" width="0.44" height="5.15"/></g><g id="Line_18" data-name="Line 18"><rect class="cls-1" x="276.1" y="134.62" width="0.44" height="5.15"/></g><g id="Line_19" data-name="Line 19"><rect class="cls-1" x="290.73" y="134.62" width="0.44" height="5.15"/></g><g id="Line_20" data-name="Line 20"><rect class="cls-1" x="305.37" y="134.62" width="0.44" height="5.15"/></g></g></g></g><g id="Group_36" data-name="Group 36"><g id="Group_33" data-name="Group 33"><g id="_-15" data-name=" -15" class="cls-3"><g class="cls-3"><path class="cls-1" d="M26.25,244.29v-1.55h3.53v1.55Z"/><path class="cls-1" d="M31.56,246.69v-6.12a2.83,2.83,0,0,1-1.79.65v-1.39a2.59,2.59,0,0,0,2.3-1.73h1.37v8.59Z"/><path class="cls-1" d="M37.36,246.84a4.24,4.24,0,0,1-2.76-1.05l1-1.28a2.76,2.76,0,0,0,1.75.68,1.49,1.49,0,0,0,1.46-1.52,1.36,1.36,0,0,0-1.35-1.45,1.86,1.86,0,0,0-1.48.89l-1.1-.41.47-4.6h4.73v1.53h-3.3l-.17,1.52a2.19,2.19,0,0,1,1.54-.46c1.48,0,2.54,1.14,2.54,3A3.23,3.23,0,0,1,37.36,246.84Z"/></g></g><g id="_-12" data-name=" -12" class="cls-3"><g class="cls-3"><path class="cls-1" d="M26.21,223.68v-1.55h3.53v1.55Z"/><path class="cls-1" d="M31.52,226.09V220a2.83,2.83,0,0,1-1.79.65v-1.39a2.59,2.59,0,0,0,2.3-1.73h1.38v8.6Z"/><path class="cls-1" d="M39.68,221.91l-2,2.59h2.73v1.59H34.48l3.62-4.89a2,2,0,0,0,.5-1.37.9.9,0,0,0-.91-1,1.07,1.07,0,0,0-1.21,1.2v.19H34.72v-.19a2.71,2.71,0,0,1,3-2.73,2.5,2.5,0,0,1,2.8,2.48A3.26,3.26,0,0,1,39.68,221.91Z"/></g></g><g id="_-9" data-name=" -9" class="cls-3"><g class="cls-3"><path class="cls-1" d="M29.9,203.08v-1.56h3.54v1.56Z"/><path class="cls-1" d="M36.69,205.81l-1.13-1.32a7.2,7.2,0,0,0,2.15-2.39,2.09,2.09,0,0,1-1.51.47,2.69,2.69,0,0,1-2.62-2.79,3.1,3.1,0,0,1,3.39-3,3,3,0,0,1,3.22,3C40.19,202.31,37.9,204.89,36.69,205.81Zm.2-7.54a1.4,1.4,0,0,0-1.43,1.48,1.37,1.37,0,0,0,1.43,1.37,1.34,1.34,0,0,0,1.41-1.37A1.37,1.37,0,0,0,36.89,198.27Z"/></g></g><g id="_-6" data-name=" -6" class="cls-3"><g class="cls-3"><path class="cls-1" d="M29.9,182.47v-1.55h3.54v1.55Z"/><path class="cls-1" d="M37.39,185a3,3,0,0,1-3.22-3c0-2.53,1.92-4.76,3.5-6l1.13,1.32a7.35,7.35,0,0,0-2.16,2.39,2.13,2.13,0,0,1,1.52-.47A2.69,2.69,0,0,1,40.78,182,3.1,3.1,0,0,1,37.39,185Zm.08-4.39A1.35,1.35,0,0,0,36.05,182a1.37,1.37,0,0,0,1.42,1.47A1.39,1.39,0,0,0,38.89,182,1.37,1.37,0,0,0,37.47,180.63Z"/></g></g><g id="_-3" data-name=" -3" class="cls-3"><g class="cls-3"><path class="cls-1" d="M29.8,161.87v-1.56h3.53v1.56Z"/><path class="cls-1" d="M37.07,164.41A4.09,4.09,0,0,1,34,163.14L35,162a3.1,3.1,0,0,0,2.08.8c.77,0,1.4-.42,1.4-1.14s-.58-1-1.62-1h-.53v-1.53h.75c.79,0,1.19-.25,1.19-1,0-.53-.55-.87-1.19-.87a2.35,2.35,0,0,0-1.72.54l-.89-1.24a4,4,0,0,1,2.78-.95c1.44,0,2.9.89,2.9,2.31a1.86,1.86,0,0,1-1.22,1.83,1.94,1.94,0,0,1,1.43,2C40.35,163.24,39.09,164.41,37.07,164.41Z"/></g></g><g id="_0" data-name=" 0" class="cls-3"><g class="cls-3"><path class="cls-1" d="M35.9,143.8c-2.16,0-3.44-1.87-3.44-4.47s1.28-4.41,3.44-4.41,3.46,1.89,3.46,4.41S38.07,143.8,35.9,143.8Zm0-7.29c-1.24,0-1.48,1.57-1.48,2.82s.28,2.88,1.48,2.88,1.5-1.62,1.5-2.88S37.11,136.51,35.9,136.51Z"/></g></g><g id="_3" data-name=" 3" class="cls-3"><g class="cls-3"><path class="cls-1" d="M35.34,122.76a3.89,3.89,0,0,1-3-1.23l1-1.13a3,3,0,0,0,2,.77c.75,0,1.35-.41,1.35-1.1s-.56-1-1.56-1h-.51v-1.48h.72c.76,0,1.14-.23,1.14-1,0-.51-.52-.84-1.14-.84a2.26,2.26,0,0,0-1.66.52l-.85-1.19a3.85,3.85,0,0,1,2.68-.92c1.38,0,2.79.86,2.79,2.22a1.8,1.8,0,0,1-1.18,1.77,1.87,1.87,0,0,1,1.38,1.88C38.5,121.63,37.29,122.76,35.34,122.76Z"/></g></g><g id="_6" data-name=" 6" class="cls-3"><g class="cls-3"><path class="cls-1" d="M36,101.27a2.7,2.7,0,0,1-2.86-2.71c0-2.25,1.71-4.23,3.11-5.36l1,1.17a6.63,6.63,0,0,0-1.92,2.13,1.87,1.87,0,0,1,1.35-.42,2.39,2.39,0,0,1,2.33,2.48A2.76,2.76,0,0,1,36,101.27Zm.08-3.9a1.19,1.19,0,0,0-1.26,1.23,1.21,1.21,0,0,0,1.26,1.3,1.23,1.23,0,0,0,1.26-1.3A1.21,1.21,0,0,0,36.11,97.37Z"/></g></g><g id="_9" data-name=" 9" class="cls-3"><g class="cls-3"><path class="cls-1" d="M35.88,80.83l-1-1.18a6.62,6.62,0,0,0,1.92-2.12,1.91,1.91,0,0,1-1.35.42,2.4,2.4,0,0,1-2.33-2.49,2.76,2.76,0,0,1,3-2.7A2.7,2.7,0,0,1,39,75.46C39,77.72,37,80,35.88,80.83Zm.17-6.71a1.24,1.24,0,0,0-1.26,1.31,1.21,1.21,0,0,0,1.26,1.23,1.19,1.19,0,0,0,1.26-1.23A1.22,1.22,0,0,0,36.05,74.12Z"/></g></g><g id="_12" data-name=" 12" class="cls-3"><g class="cls-3"><path class="cls-1" d="M30.88,61.24V55.11a2.83,2.83,0,0,1-1.79.65V54.37a2.59,2.59,0,0,0,2.3-1.73h1.37v8.6Z"/><path class="cls-1" d="M39,57.06l-2,2.59h2.73v1.59H33.84l3.61-4.89A2,2,0,0,0,38,55,.9.9,0,0,0,37,54a1.06,1.06,0,0,0-1.2,1.2v.19H34.07v-.19a2.71,2.71,0,0,1,3-2.73A2.5,2.5,0,0,1,39.84,55,3.23,3.23,0,0,1,39,57.06Z"/></g></g><g id="_15" data-name=" 15" class="cls-3"><g class="cls-3"><path class="cls-1" d="M30.51,41.07V34.71a3,3,0,0,1-1.86.68V33.94A2.65,2.65,0,0,0,31,32.15h1.43v8.92Z"/><path class="cls-1" d="M36.52,41.21a4.41,4.41,0,0,1-2.86-1.08l1.05-1.32a2.91,2.91,0,0,0,1.81.69A1.54,1.54,0,0,0,38,37.93a1.41,1.41,0,0,0-1.39-1.51,2,2,0,0,0-1.54.93L34,36.93l.48-4.78h4.9v1.59H35.93l-.17,1.57a2.26,2.26,0,0,1,1.59-.47C38.89,34.84,40,36,40,37.93A3.35,3.35,0,0,1,36.52,41.21Z"/></g></g></g><g id="Line_21" data-name="Line 21"><rect class="cls-1" x="41.92" y="36.74" width="0.44" height="206.06"/></g><g id="Group_35" data-name="Group 35"><g id="Group_34" data-name="Group 34"><g id="Line_22" data-name="Line 22"><rect class="cls-1" x="42.14" y="242.59" width="6.59" height="0.44"/></g><g id="Line_23" data-name="Line 23"><rect class="cls-1" x="42.14" y="221.98" width="6.59" height="0.44"/></g><g id="Line_24" data-name="Line 24"><rect class="cls-1" x="42.14" y="201.38" width="6.59" height="0.44"/></g><g id="Line_25" data-name="Line 25"><rect class="cls-1" x="42.14" y="180.77" width="6.59" height="0.44"/></g><g id="Line_26" data-name="Line 26"><rect class="cls-1" x="42.14" y="160.16" width="6.59" height="0.44"/></g><g id="Line_27" data-name="Line 27"><rect class="cls-1" x="42.14" y="139.56" width="6.59" height="0.44"/></g><g id="Line_28" data-name="Line 28"><rect class="cls-1" x="42.14" y="118.95" width="6.59" height="0.44"/></g><g id="Line_29" data-name="Line 29"><rect class="cls-1" x="42.14" y="98.35" width="6.59" height="0.44"/></g><g id="Line_30" data-name="Line 30"><rect class="cls-1" x="42.14" y="77.74" width="6.59" height="0.44"/></g><g id="Line_31" data-name="Line 31"><rect class="cls-1" x="42.14" y="57.13" width="6.59" height="0.44"/></g><g id="Line_32" data-name="Line 32"><rect class="cls-1" x="42.14" y="36.53" width="6.59" height="0.44"/></g></g></g></g><g id="Group_39" data-name="Group 39"><g id="Path_232" data-name="Path 232"><path class="cls-1" d="M48,141.33l16.42,15.41,15-21.14,13.45,6.31h16L123.68,128l14.08-3.31L153,121.12l14.44-13.55h13.32l14.2,6.66L210,121.3h16.21l14.95-21,14.13-6.63,14.94-7,15-14.11L300,51.72l-3.48-2.47L282,69.68,267.78,83l-14.33,6.72-15.14,7.11L224,117H210.93l-14.21-6.67-15.06-7.07h-16l-14.84,13.93-14.08,3.3-15.19,3.56-14.44,13.55H93.84L78,130.22,63.77,150.29,50.91,138.22Z"/><path class="cls-1" d="M64.48,157.4l-17.1-16.05,3.51-3.75,12.81,12,14.17-20,16.07,7.54h13l14.4-13.51,29.27-6.87,14.88-14h16.22L211,116.6h12.73L238,96.52l.11,0,29.41-13.81,14.15-13.28,14.74-20.75,4.19,3L285.55,72.82,270.46,87l-29,13.62-15,21.14H209.88L180.61,108H167.56l-14.39,13.51-29.27,6.87-14.88,14H92.79l-13.21-6.2ZM48.61,141.31l15.74,14.77,14.94-21L93,141.47h15.68l14.8-13.88,29.27-6.87,14.48-13.59H180.8l29.27,13.74H226l14.88-21,.1,0,29-13.61,15-14L299.4,51.82l-2.77-2L282.35,70l0,0L268,83.4,238.6,97.22l-14.39,20.25H210.83l-29.27-13.73H165.87l-14.79,13.88-29.28,6.87-14.47,13.59H93.74l-15.58-7.31L63.83,151l-12.9-12.11Z"/></g></g><g id="Group_47" data-name="Group 47"><g id="_17" data-name=" 17" class="cls-3"><g class="cls-3"><path class="cls-1" d="M279.89,255.2h-1.06l-.31-1.65v-1.73h1.69v1.73Z"/><path class="cls-1" d="M282.9,260.42v-6.13a2.77,2.77,0,0,1-1.79.65v-1.39a2.56,2.56,0,0,0,2.29-1.73h1.38v8.6Z"/><path class="cls-1" d="M288.4,260.42h-2l3.45-7h-3.6v-1.59h6Z"/></g></g><g id="_16" data-name=" 16" class="cls-3"><g class="cls-3"><path class="cls-1" d="M266.17,255h-1l-.3-1.59V251.7h1.63v1.67Z"/><path class="cls-1" d="M269.07,260v-5.9a2.72,2.72,0,0,1-1.73.63v-1.34a2.51,2.51,0,0,0,2.22-1.67h1.32V260Z"/><path class="cls-1" d="M275,260.12a2.92,2.92,0,0,1-3.1-2.93c0-2.44,1.85-4.58,3.37-5.81l1.09,1.27a7,7,0,0,0-2.07,2.31,2,2,0,0,1,1.46-.46,2.59,2.59,0,0,1,2.52,2.69A3,3,0,0,1,275,260.12Zm.08-4.22a1.29,1.29,0,0,0-1.36,1.32,1.32,1.32,0,0,0,1.36,1.42,1.34,1.34,0,0,0,1.37-1.42A1.31,1.31,0,0,0,275.08,255.9Z"/></g></g><g id="_15-2" data-name=" 15-2" class="cls-3"><g class="cls-3"><path class="cls-1" d="M252.33,255h-1l-.31-1.59V251.7h1.64v1.67Z"/><path class="cls-1" d="M255.23,260v-5.9a2.74,2.74,0,0,1-1.73.63v-1.34a2.49,2.49,0,0,0,2.21-1.67H257V260Z"/><path class="cls-1" d="M260.81,260.12a4.08,4.08,0,0,1-2.66-1l1-1.23a2.65,2.65,0,0,0,1.68.65,1.42,1.42,0,0,0,1.4-1.46,1.31,1.31,0,0,0-1.29-1.4,1.82,1.82,0,0,0-1.43.86l-1.05-.39.45-4.44h4.55v1.47h-3.18l-.16,1.47a2.09,2.09,0,0,1,1.48-.44c1.43,0,2.45,1.1,2.45,2.87A3.11,3.11,0,0,1,260.81,260.12Z"/></g></g><g id="_14" data-name=" 14" class="cls-3"><g class="cls-3"><path class="cls-1" d="M238.48,255.2h-1.06l-.32-1.65v-1.73h1.7v1.73Z"/><path class="cls-1" d="M241.49,260.42v-6.13a2.82,2.82,0,0,1-1.8.65v-1.39a2.59,2.59,0,0,0,2.3-1.73h1.38v8.6Z"/><path class="cls-1" d="M249.73,258.32v2.1h-1.88v-2.1h-3.5v-1.11l3.87-5.39h1.51v5.09h1v1.41Zm-1.88-4L246,256.91h1.82Z"/></g></g><g id="_13" data-name=" 13" class="cls-3"><g class="cls-3"><path class="cls-1" d="M224.73,255h-1l-.3-1.59V251.7H225v1.67Z"/><path class="cls-1" d="M227.63,260v-5.9a2.72,2.72,0,0,1-1.73.63v-1.34a2.48,2.48,0,0,0,2.21-1.67h1.33V260Z"/><path class="cls-1" d="M233.36,260.12a3.93,3.93,0,0,1-3-1.23l1-1.13a3,3,0,0,0,2,.77c.75,0,1.35-.41,1.35-1.1s-.56-1-1.56-1h-.51V255h.72c.76,0,1.14-.24,1.14-1,0-.51-.52-.84-1.14-.84a2.26,2.26,0,0,0-1.66.52l-.85-1.19a3.85,3.85,0,0,1,2.68-.92c1.38,0,2.79.87,2.79,2.23a1.82,1.82,0,0,1-1.18,1.77,1.85,1.85,0,0,1,1.38,1.87C236.52,259,235.31,260.12,233.36,260.12Z"/></g></g><g id="_12-2" data-name=" 12-2" class="cls-3"><g class="cls-3"><path class="cls-1" d="M210.93,255h-1l-.3-1.59V251.7h1.63v1.67Z"/><path class="cls-1" d="M213.82,260v-5.9a2.72,2.72,0,0,1-1.73.63v-1.34a2.51,2.51,0,0,0,2.22-1.67h1.32V260Z"/><path class="cls-1" d="M221.67,256l-1.92,2.5h2.63V260h-5.71l3.48-4.71a1.89,1.89,0,0,0,.49-1.31.87.87,0,0,0-.89-.92,1,1,0,0,0-1.16,1.16v.18h-1.7v-.18a2.62,2.62,0,0,1,2.86-2.64,2.42,2.42,0,0,1,2.7,2.4A3.07,3.07,0,0,1,221.67,256Z"/></g></g><g id="_11" data-name=" 11" class="cls-3"><g class="cls-3"><path class="cls-1" d="M198.58,255h-1l-.3-1.59V251.7h1.63v1.67Z"/><path class="cls-1" d="M201.48,260v-5.9a2.72,2.72,0,0,1-1.73.63v-1.34A2.48,2.48,0,0,0,202,251.7h1.33V260Z"/><path class="cls-1" d="M206,260v-5.9a2.69,2.69,0,0,1-1.72.63v-1.34a2.49,2.49,0,0,0,2.21-1.67h1.33V260Z"/></g></g><g id="_10" data-name=" 10" class="cls-3"><g class="cls-3"><path class="cls-1" d="M184.74,255h-1l-.31-1.59V251.7h1.64v1.67Z"/><path class="cls-1" d="M187.63,260v-5.9a2.69,2.69,0,0,1-1.72.63v-1.34a2.49,2.49,0,0,0,2.21-1.67h1.33V260Z"/><path class="cls-1" d="M193.83,260.12c-2.09,0-3.31-1.81-3.31-4.31s1.22-4.25,3.31-4.25,3.32,1.82,3.32,4.25S195.92,260.12,193.83,260.12Zm0-7c-1.2,0-1.43,1.51-1.43,2.72s.27,2.78,1.43,2.78,1.44-1.57,1.44-2.78S195,253.09,193.83,253.09Z"/></g></g><g id="_09" data-name=" 09" class="cls-3"><g class="cls-3"><path class="cls-1" d="M169.94,255h-1l-.3-1.59V251.7h1.63v1.67Z"/><path class="cls-1" d="M174.49,260.12c-2.09,0-3.32-1.81-3.32-4.31s1.23-4.25,3.32-4.25,3.32,1.82,3.32,4.25S176.57,260.12,174.49,260.12Zm0-7c-1.21,0-1.43,1.51-1.43,2.72s.27,2.78,1.43,2.78,1.44-1.57,1.44-2.78S175.64,253.09,174.49,253.09Z"/><path class="cls-1" d="M181.35,260.3,180.26,259a7.13,7.13,0,0,0,2.08-2.3,2.08,2.08,0,0,1-1.47.45,2.59,2.59,0,0,1-2.52-2.69,3,3,0,0,1,3.27-2.93,2.92,2.92,0,0,1,3.1,2.93C184.72,256.93,182.52,259.41,181.35,260.3Zm.19-7.26a1.34,1.34,0,0,0-1.37,1.42,1.31,1.31,0,0,0,1.37,1.32,1.29,1.29,0,0,0,1.36-1.32A1.32,1.32,0,0,0,181.54,253Z"/></g></g><g id="_08" data-name=" 08" class="cls-3"><g class="cls-3"><path class="cls-1" d="M153.75,255h-1l-.31-1.59V251.7h1.63v1.67Z"/><path class="cls-1" d="M158.3,260.12c-2.09,0-3.31-1.81-3.31-4.31s1.22-4.25,3.31-4.25,3.32,1.82,3.32,4.25S160.39,260.12,158.3,260.12Zm0-7c-1.2,0-1.43,1.51-1.43,2.72s.27,2.78,1.43,2.78,1.44-1.57,1.44-2.78S159.46,253.09,158.3,253.09Z"/><path class="cls-1" d="M165.59,260.12c-1.83,0-3.26-.94-3.26-2.53a2.19,2.19,0,0,1,1.46-2.07,1.79,1.79,0,0,1-1.06-1.6c0-1.42,1-2.36,2.86-2.36s2.9.94,2.9,2.36a1.74,1.74,0,0,1-1,1.6,2.18,2.18,0,0,1,1.37,2.18C168.86,259.18,167.43,260.12,165.59,260.12Zm0-3.84c-.77,0-1.51.38-1.51,1.15a1.55,1.55,0,0,0,3,0C167.1,256.66,166.36,256.28,165.59,256.28Zm0-3.3a1,1,0,1,0,0,1.94,1.06,1.06,0,0,0,1.19-1C166.78,253.32,166.19,253,165.59,253Z"/></g></g><g id="_07" data-name=" 07" class="cls-3"><g class="cls-3"><path class="cls-1" d="M138.56,255h-1l-.31-1.59V251.7h1.64v1.67Z"/><path class="cls-1" d="M143.11,260.12c-2.09,0-3.31-1.81-3.31-4.31s1.22-4.25,3.31-4.25,3.33,1.82,3.33,4.25S145.2,260.12,143.11,260.12Zm0-7c-1.2,0-1.43,1.51-1.43,2.72s.27,2.78,1.43,2.78,1.44-1.57,1.44-2.78S144.27,253.09,143.11,253.09Z"/><path class="cls-1" d="M149.06,260h-1.91l3.32-6.75H147V251.7h5.82Z"/></g></g><g id="_06" data-name=" 06" class="cls-3"><g class="cls-3"><path class="cls-1" d="M123.18,255h-1l-.31-1.59V251.7h1.64v1.67Z"/><path class="cls-1" d="M127.73,260.12c-2.09,0-3.31-1.81-3.31-4.31s1.22-4.25,3.31-4.25,3.32,1.82,3.32,4.25S129.82,260.12,127.73,260.12Zm0-7c-1.2,0-1.43,1.51-1.43,2.72s.27,2.78,1.43,2.78,1.44-1.57,1.44-2.78S128.89,253.09,127.73,253.09Z"/><path class="cls-1" d="M134.76,260.12a2.91,2.91,0,0,1-3.09-2.93c0-2.44,1.85-4.58,3.37-5.81l1.09,1.27a7,7,0,0,0-2.08,2.31,2,2,0,0,1,1.46-.46,2.59,2.59,0,0,1,2.52,2.69A3,3,0,0,1,134.76,260.12Zm.08-4.22a1.29,1.29,0,0,0-1.36,1.32,1.32,1.32,0,0,0,1.36,1.42,1.34,1.34,0,0,0,1.38-1.42A1.32,1.32,0,0,0,134.84,255.9Z"/></g></g><g id="_05" data-name=" 05" class="cls-3"><g class="cls-3"><path class="cls-1" d="M107,255h-1l-.31-1.59V251.7h1.64v1.67Z"/><path class="cls-1" d="M111.59,260.12c-2.09,0-3.31-1.81-3.31-4.31s1.22-4.25,3.31-4.25,3.32,1.82,3.32,4.25S113.68,260.12,111.59,260.12Zm0-7c-1.2,0-1.43,1.51-1.43,2.72s.27,2.78,1.43,2.78S113,257,113,255.81,112.75,253.09,111.59,253.09Z"/><path class="cls-1" d="M118.27,260.12a4.06,4.06,0,0,1-2.65-1l1-1.23a2.68,2.68,0,0,0,1.68.65,1.43,1.43,0,0,0,1.41-1.46,1.31,1.31,0,0,0-1.3-1.4,1.8,1.8,0,0,0-1.42.86l-1.06-.39.45-4.44h4.55v1.47h-3.17l-.16,1.47a2,2,0,0,1,1.47-.44c1.43,0,2.45,1.1,2.45,2.87A3.11,3.11,0,0,1,118.27,260.12Z"/></g></g><g id="_04" data-name=" 04" class="cls-3"><g class="cls-3"><path class="cls-1" d="M91.78,255h-1l-.3-1.59V251.7h1.63v1.67Z"/><path class="cls-1" d="M96.33,260.12c-2.08,0-3.31-1.81-3.31-4.31s1.23-4.25,3.31-4.25,3.33,1.82,3.33,4.25S98.42,260.12,96.33,260.12Zm0-7c-1.2,0-1.43,1.51-1.43,2.72s.28,2.78,1.43,2.78,1.44-1.57,1.44-2.78S97.49,253.09,96.33,253.09Z"/><path class="cls-1" d="M105.38,258v2h-1.82v-2h-3.37V256.9l3.73-5.2h1.46v4.9h1V258Zm-1.82-3.82-1.75,2.46h1.75Z"/></g></g><g id="_03" data-name=" 03" class="cls-3"><g class="cls-3"><path class="cls-1" d="M75.61,255h-1l-.31-1.59V251.7h1.63v1.67Z"/><path class="cls-1" d="M80.16,260.12c-2.09,0-3.32-1.81-3.32-4.31s1.23-4.25,3.32-4.25,3.32,1.82,3.32,4.25S82.25,260.12,80.16,260.12Zm0-7c-1.21,0-1.43,1.51-1.43,2.72s.27,2.78,1.43,2.78,1.44-1.57,1.44-2.78S81.31,253.09,80.16,253.09Z"/><path class="cls-1" d="M86.74,260.12a3.89,3.89,0,0,1-3-1.23l1-1.13a3,3,0,0,0,2,.77c.75,0,1.35-.41,1.35-1.1s-.56-1-1.56-1H86V255h.72c.76,0,1.14-.24,1.14-1,0-.51-.52-.84-1.14-.84a2.26,2.26,0,0,0-1.66.52l-.85-1.19a3.85,3.85,0,0,1,2.68-.92c1.38,0,2.79.87,2.79,2.23a1.82,1.82,0,0,1-1.18,1.77,1.85,1.85,0,0,1,1.38,1.87C89.9,259,88.69,260.12,86.74,260.12Z"/></g></g><g id="_02" data-name=" 02" class="cls-3"><g class="cls-3"><path class="cls-1" d="M59.5,255h-1l-.31-1.59V251.7h1.64v1.67Z"/><path class="cls-1" d="M64.05,260.12c-2.09,0-3.31-1.81-3.31-4.31s1.22-4.25,3.31-4.25,3.32,1.82,3.32,4.25S66.14,260.12,64.05,260.12Zm0-7c-1.2,0-1.43,1.51-1.43,2.72s.27,2.78,1.43,2.78,1.44-1.57,1.44-2.78S65.21,253.09,64.05,253.09Z"/><path class="cls-1" d="M72.78,256l-1.92,2.5h2.63V260H67.77l3.48-4.71a1.85,1.85,0,0,0,.49-1.31.87.87,0,0,0-.88-.92,1,1,0,0,0-1.16,1.16v.18H68v-.18a2.61,2.61,0,0,1,2.86-2.64,2.42,2.42,0,0,1,2.7,2.4A3.07,3.07,0,0,1,72.78,256Z"/></g></g><g id="_01" data-name=" 01" class="cls-3"><g class="cls-3"><path class="cls-1" d="M45.63,255h-1l-.3-1.59V251.7h1.63v1.67Z"/><path class="cls-1" d="M50.18,260.12c-2.09,0-3.32-1.81-3.32-4.31s1.23-4.25,3.32-4.25,3.32,1.82,3.32,4.25S52.26,260.12,50.18,260.12Zm0-7c-1.21,0-1.43,1.51-1.43,2.72s.27,2.78,1.43,2.78,1.44-1.57,1.44-2.78S51.33,253.09,50.18,253.09Z"/><path class="cls-1" d="M55.81,260v-5.9a2.69,2.69,0,0,1-1.72.63v-1.34a2.49,2.49,0,0,0,2.21-1.67h1.33V260Z"/></g></g></g></g></g></svg>