<svg id="Layer_1" data-name="Layer 1" xmlns="http://www.w3.org/2000/svg" viewBox="0 0 312.51 107.23"><defs><style>.cls-1{fill:#FFFFFF;}</style></defs><path class="cls-1" d="M14.89,91.1V60.28L18,62.06l3.36-1.78V85H35V91.1Z"/><path class="cls-1" d="M52.76,91.1V89.44A7.68,7.68,0,0,1,46.86,92c-5.12,0-8.72-5.26-8.72-10,0-5.62,5-10.73,12.1-10.73h2.52V69.14c0-2-1.22-3.17-4.1-3.17a12.65,12.65,0,0,0-6.84,2l-2.38-5.12a15.77,15.77,0,0,1,9-2.59c6,0,10.51,2.23,10.51,8.36V91.1Zm0-14.69H51.18c-3.31,0-6.7,1.66-6.7,5.26,0,2.16,1,4.61,3.6,4.61a5.72,5.72,0,0,0,4.68-2Z"/><path class="cls-1" d="M71.62,92a9.94,9.94,0,0,1-8-3.61L67,84.19a6.89,6.89,0,0,0,4.6,2.09,2.54,2.54,0,0,0,2.81-2.52c0-2.67-3-4.68-5.76-7.2-2.52-2.24-4.82-4.9-4.82-8.79,0-4.54,3.89-7.49,8.42-7.49,3.67,0,5.62,1.08,7.35,2.88l-3.32,4.4A5.46,5.46,0,0,0,72.78,66c-1.37,0-2.6.72-2.6,2,0,1.87,2.38,3.81,4.83,6.05,2.81,2.52,5.76,5.47,5.76,9.28C80.77,88.8,76.45,92,71.62,92Z"/><path class="cls-1" d="M86.24,82.1V66.69H83.29V61.15h2.95V46.6h6.19V61.15h3.46v5.54H92.43V81.38c0,2.74,1.08,4.18,3.46,4.18v6.12C89.19,91.68,86.24,89.3,86.24,82.1Z"/><path class="cls-1" d="M143.67,91.28v-20h-14.4v20h-6.48V46.39h6.48V66.07h14.4V46.39h6.48V91.28Z"/><path class="cls-1" d="M232.31,91.28v-20c0-3.09-.94-5.47-3.24-5.47-3.17,0-4.32,2.88-4.32,5.76V91.28h-6.19v-30h6.19V63.2a7.3,7.3,0,0,1,5.83-2.74c4.54,0,7.92,3.74,7.92,8.64V91.28Z"/><path class="cls-1" d="M253.76,104.17a13.75,13.75,0,0,1-9.43-4l3.24-4.11a10,10,0,0,0,6.19,2.67c2.67,0,4.4-1.59,4.4-5.26V89.26a6.34,6.34,0,0,1-5.33,2.88c-7.35,0-9.65-8.35-9.65-15.26,0-8.21,2.66-16.42,9.58-16.42a6.37,6.37,0,0,1,5.4,3V61.32h6.19V92.93C264.35,100.64,259.38,104.17,253.76,104.17Zm.08-38.31c-4,0-4.32,6.7-4.32,11,0,4.1.65,9.86,4.32,9.86s4.32-6.33,4.32-10C258.16,72.2,257.51,65.86,253.84,65.86Z"/><path class="cls-1" d="M280.69,92.14c-7.34,0-11.3-7.13-11.3-16.06,0-8.35,3.09-15.62,10.58-15.62,6.92,0,10.37,7,10.37,13.25v4H275.51c.21,4.54,1.44,8.71,5.18,8.71,2.38,0,4.32-1.44,5.84-3.09l3.81,3.81C287.75,90.41,284.65,92.14,280.69,92.14Zm3.46-20.23c0-3-1.66-5.76-4.18-5.76-2.73,0-4.39,2.81-4.46,6.77h8.64Z"/><path class="cls-1" d="M301.57,76.08v15.2h-6.19v-30h6.19v3.32a8.61,8.61,0,0,1,7.06-4.18v6.62C305.1,67.08,301.57,70.83,301.57,76.08Z"/><path class="cls-1" d="M184,91.17a27.47,27.47,0,0,1-27.43-27.43,2.5,2.5,0,0,1,5,0,22.43,22.43,0,1,0,44.86,0,2.5,2.5,0,0,1,5,0A27.47,27.47,0,0,1,184,91.17Z"/><path class="cls-1" d="M174.37,80.86a2.41,2.41,0,0,1-1.18-.3,16.06,16.06,0,0,1-2.86-2,2.5,2.5,0,1,1,3.22-3.82,11.7,11.7,0,0,0,2,1.37,2.5,2.5,0,0,1-1.19,4.7Z"/><path class="cls-1" d="M184,83.24a20.48,20.48,0,0,1-3.11-.25,2.5,2.5,0,1,1,.78-4.94,15.36,15.36,0,0,0,2.33.19,14.51,14.51,0,0,0,14.49-14.5,2.5,2.5,0,0,1,5,0A19.52,19.52,0,0,1,184,83.24Z"/><path class="cls-1" d="M18,19.68c-3.14,0-5.13-4.59-5.13-7s3.19-6.51,4.17-7.76l1-1.22,1,1.22c1,1.25,4.17,5.49,4.17,7.76S21.16,19.68,18,19.68ZM18,7.73c-1.43,2-2.69,4.16-2.69,5,0,1.68,1.53,4.53,2.69,4.53s2.69-2.85,2.69-4.53C20.72,11.89,19.45,9.72,18,7.73Z"/><path class="cls-1" d="M18,20c-3.38,0-5.44-4.72-5.44-7.28,0-2.3,3-6.33,4.24-7.95L18,3.22l1.2,1.53c1.27,1.63,4.24,5.65,4.24,8C23.47,15.26,21.4,20,18,20ZM18,4.21l-.72.92c-2,2.53-4.11,5.84-4.11,7.57,0,2.34,2,6.67,4.83,6.67S22.85,15,22.85,12.7c0-1.72-2.12-5-4.1-7.57Zm0,13.33c-1.46,0-3-3.15-3-4.84,0-1.24,2.29-4.5,2.75-5.15L18,7.21l.25.34C18.73,8.2,21,11.46,21,12.7,21,14.39,19.48,17.54,18,17.54Zm0-9.28c-1.42,2-2.39,3.82-2.39,4.44,0,1.62,1.47,4.23,2.39,4.23s2.38-2.61,2.38-4.23C20.41,12.08,19.44,10.29,18,8.26Z"/><path class="cls-1" d="M18.25,59.08l-.37-2.67a7.34,7.34,0,0,1,3.57-9.74l6.88-3.19,1.35,2.92a7.35,7.35,0,0,1-3.58,9.74Zm8.89-12.35-4.66,2.15a4.92,4.92,0,0,0-2.39,6.51l.33.69,4.65-2.16a4.91,4.91,0,0,0,2.39-6.5Z"/><path class="cls-1" d="M19.14,48.38,19,48.07a1.28,1.28,0,0,0-.22.24,2,2,0,0,0-.21.26l.14.31v0a3.13,3.13,0,0,0-.5.72,1.69,1.69,0,0,0-.17-.29,1.19,1.19,0,0,0-.19.33A.65.65,0,0,1,18,50a1.74,1.74,0,0,0-.16.34,1.82,1.82,0,0,1,.19.43,1,1,0,0,1,.17-.41A.59.59,0,0,1,18.4,50a2.63,2.63,0,0,1,.45-.77,1.11,1.11,0,0,1,.22-.29.75.75,0,0,1,.21-.26Zm8.61-1.08-.46-1-4.94,2.27a5.24,5.24,0,0,0-2.54,6.93l.46,1,4.94-2.27A5.23,5.23,0,0,0,27.75,47.3Zm-7.19,8.37-.2-.41a4.61,4.61,0,0,1,2.26-6.09l4.36-2,.19.41a4.6,4.6,0,0,1-2.23,6.11ZM19,48.07a1.28,1.28,0,0,0-.22.24,2,2,0,0,0-.21.26l.14.31v0a3.13,3.13,0,0,0-.5.72,1.69,1.69,0,0,0-.17-.29,1.19,1.19,0,0,0-.19.33A.65.65,0,0,1,18,50a1.74,1.74,0,0,0-.16.34,1.82,1.82,0,0,1,.19.43,1,1,0,0,1,.17-.41A.59.59,0,0,1,18.4,50a2.63,2.63,0,0,1,.45-.77,1.11,1.11,0,0,1,.22-.29.75.75,0,0,1,.21-.26l-.14-.29Zm8.75-.77-.46-1-4.94,2.27a5.24,5.24,0,0,0-2.54,6.93l.46,1,4.94-2.27A5.23,5.23,0,0,0,27.75,47.3Zm-7.19,8.37-.2-.41a4.61,4.61,0,0,1,2.26-6.09l4.36-2,.19.41a4.6,4.6,0,0,1-2.23,6.11ZM19,48.07a1.28,1.28,0,0,0-.22.24,2,2,0,0,0-.21.26l.14.31v0a3.13,3.13,0,0,0-.5.72,1.69,1.69,0,0,0-.17-.29,1.19,1.19,0,0,0-.19.33A.65.65,0,0,1,18,50a1.74,1.74,0,0,0-.16.34,1.82,1.82,0,0,1,.19.43,1,1,0,0,1,.17-.41A.59.59,0,0,1,18.4,50a2.63,2.63,0,0,1,.45-.77,1.11,1.11,0,0,1,.22-.29.75.75,0,0,1,.21-.26l-.14-.29Zm8.29-1.75-4.94,2.27a5.24,5.24,0,0,0-2.54,6.93l.46,1,4.94-2.27a5.23,5.23,0,0,0,2.54-6.91Zm-6.73,9.35-.2-.41a4.61,4.61,0,0,1,2.26-6.09l4.36-2,.19.41a4.6,4.6,0,0,1-2.23,6.11ZM30,46.27l-1-2.06-.28-.63-.24-.5-7.15,3.31A7.35,7.35,0,0,0,19,48.07a1.28,1.28,0,0,0-.22.24,2,2,0,0,0-.21.26,5.57,5.57,0,0,0-.53.72v.05a1.19,1.19,0,0,0-.19.33,1.23,1.23,0,0,0-.17.32,7.53,7.53,0,0,0-.07,6.54L17.85,58l.12.81.12.72,8.15-3.07A7.65,7.65,0,0,0,30,46.27ZM18.4,58.66l-.1-.88-.12-1.25v-.12l0-.12A1,1,0,0,1,18,56a6.78,6.78,0,0,1,0-5.27,1,1,0,0,1,.17-.41A.59.59,0,0,1,18.4,50a2.63,2.63,0,0,1,.45-.77,1.11,1.11,0,0,1,.22-.29.75.75,0,0,1,.21-.26,6.91,6.91,0,0,1,2.31-1.73l6.59-3,.1.21.14.31.14.31.84,1.8A7,7,0,0,1,26,55.86Z"/><path class="cls-1" d="M18,59.08l-8-2.94a7.35,7.35,0,0,1-3.57-9.75l1.35-2.91,6.87,3.19a7.34,7.34,0,0,1,3.57,9.74Zm-9-12.35-.33.69A4.91,4.91,0,0,0,11,53.92l4.66,2.16.32-.69a4.92,4.92,0,0,0-2.39-6.51Z"/><path class="cls-1" d="M18,49.29c-.17-.24-.34-.48-.53-.7l-.17.32a.85.85,0,0,0-.19-.29,1.28,1.28,0,0,0-.22-.24,6.75,6.75,0,0,0-2.32-1.7L7.73,43.49l-.17.36a.71.71,0,0,0,.22.24l.09-.19,6.62,3a6.87,6.87,0,0,1,2.3,1.73,3.28,3.28,0,0,1,.22.26,1.2,1.2,0,0,1,.19.29,2.69,2.69,0,0,1,.48.77.63.63,0,0,1,.17.31A1.74,1.74,0,0,1,18,50a.65.65,0,0,0-.16-.29,1.19,1.19,0,0,1,.19-.33Zm-4.34-.7L8.78,46.32l-.45,1a5.22,5.22,0,0,0,2.54,6.91l4.91,2.27.46-1A5.22,5.22,0,0,0,13.7,48.59Zm-2.59,5.06a4.63,4.63,0,0,1-2.23-6.11l.19-.41,4.39,2a4.57,4.57,0,0,1,2.23,6.09l-.19.41ZM18,49.29c-.17-.24-.34-.48-.53-.7l-.17.32a.85.85,0,0,0-.19-.29,1.28,1.28,0,0,0-.22-.24,6.75,6.75,0,0,0-2.32-1.7L7.73,43.49l-.17.36a.71.71,0,0,0,.22.24l.09-.19,6.62,3a6.87,6.87,0,0,1,2.3,1.73,3.28,3.28,0,0,1,.22.26,1.2,1.2,0,0,1,.19.29,2.69,2.69,0,0,1,.48.77.63.63,0,0,1,.17.31A1.74,1.74,0,0,1,18,50a.65.65,0,0,0-.16-.29,1.19,1.19,0,0,1,.19-.33Zm-4.34-.7L8.78,46.32l-.45,1a5.22,5.22,0,0,0,2.54,6.91l4.91,2.27.46-1A5.22,5.22,0,0,0,13.7,48.59Zm-2.59,5.06a4.63,4.63,0,0,1-2.23-6.11l.19-.41,4.39,2a4.57,4.57,0,0,1,2.23,6.09l-.19.41Zm7.05,2.64A1,1,0,0,1,18,56a1.48,1.48,0,0,1-.12.29l0,.24v.1l0,1.32.12.81.09-1v0l.12-1.22v-.12ZM18,50a.65.65,0,0,0-.16-.29,1.19,1.19,0,0,1,.19-.33v-.05c-.17-.24-.34-.48-.53-.7a1.88,1.88,0,0,0-.22-.26.69.69,0,0,0-.24-.24,7.3,7.3,0,0,0-2.32-1.7L7.58,43.08l-.24.5a2.61,2.61,0,0,0,.22.27.71.71,0,0,0,.22.24l.09-.19,6.62,3a6.87,6.87,0,0,1,2.3,1.73,3.28,3.28,0,0,1,.22.26,1.2,1.2,0,0,1,.19.29,2.69,2.69,0,0,1,.48.77.63.63,0,0,1,.17.31A1.74,1.74,0,0,1,18,50ZM13.7,48.59,8.78,46.32l-.45,1a5.22,5.22,0,0,0,2.54,6.91l4.91,2.27.46-1A5.22,5.22,0,0,0,13.7,48.59Zm-2.59,5.06a4.63,4.63,0,0,1-2.23-6.11l.19-.41,4.39,2a4.57,4.57,0,0,1,2.23,6.09l-.19.41ZM18.4,50a2,2,0,0,0-.19-.36,1.69,1.69,0,0,0-.17-.29v-.05c-.17-.24-.34-.48-.53-.7a1.88,1.88,0,0,0-.22-.26.69.69,0,0,0-.24-.24,7.3,7.3,0,0,0-2.32-1.7L7.58,43.08l-.24.5-.14.29-.14.34-1,2.06A7.66,7.66,0,0,0,9.84,56.41l8.25,3.07.09-.82.12-.88.17-1.25A7.53,7.53,0,0,0,18.4,50Zm-.55,8-.05.71-7.7-2.8a7,7,0,0,1-3.43-9.33l.82-1.82.14-.31.15-.29s0,0,0,0l.09-.19,6.62,3a6.87,6.87,0,0,1,2.3,1.73,3.28,3.28,0,0,1,.22.26,1.2,1.2,0,0,1,.19.29,2.69,2.69,0,0,1,.48.77.63.63,0,0,1,.17.31,1.82,1.82,0,0,1,.19.43A6.92,6.92,0,0,1,18,56a1.48,1.48,0,0,1-.12.29l0,.24v.1ZM13.7,48.59,8.78,46.32l-.45,1a5.22,5.22,0,0,0,2.54,6.91l4.91,2.27.46-1A5.22,5.22,0,0,0,13.7,48.59Zm-2.59,5.06a4.63,4.63,0,0,1-2.23-6.11l.19-.41,4.39,2a4.57,4.57,0,0,1,2.23,6.09l-.19.41Z"/><path class="cls-1" d="M19.23,49.3l-1.35-2.91a7.35,7.35,0,0,1,3.57-9.75l6.88-3.18,1.35,2.91a7.35,7.35,0,0,1-3.58,9.75Zm7.91-12.6-4.66,2.16a4.91,4.91,0,0,0-2.39,6.5l.33.7,4.65-2.16a4.9,4.9,0,0,0,2.39-6.5Z"/><path class="cls-1" d="M18.76,38.81a3,3,0,0,0-.55.79,2,2,0,0,0-.2.34v0a1.71,1.71,0,0,0-.16.29,3.17,3.17,0,0,1,.19.46.81.81,0,0,1,.19-.41v0A.56.56,0,0,1,18.4,40a3,3,0,0,1,.52-.84Zm9-1.53-.46-1-4.94,2.27a5.22,5.22,0,0,0-2.54,6.91l.46,1,4.94-2.28a5.29,5.29,0,0,0,2.68-2.92A5.22,5.22,0,0,0,27.75,37.28Zm-7.19,8.37-.2-.41a4.65,4.65,0,0,1,2.26-6.12l4.36-2,.19.41a4.6,4.6,0,0,1-2.23,6.11Zm-2.35-6a2,2,0,0,0-.2.34v0a1.71,1.71,0,0,0-.16.29,3.17,3.17,0,0,1,.19.46.81.81,0,0,1,.19-.41v0A.56.56,0,0,1,18.4,40a3,3,0,0,1,.52-.84l-.16-.31A3,3,0,0,0,18.21,39.6ZM18,46a1.78,1.78,0,0,1-.12.29l-.05.12.14.29,0,0,0,0,.05-.15,0,0,.05-.12s0,0,0,0l-.05-.07A1.19,1.19,0,0,1,18,46Zm9.71-8.7-.46-1-4.94,2.27a5.22,5.22,0,0,0-2.54,6.91l.46,1,4.94-2.28a5.29,5.29,0,0,0,2.68-2.92A5.22,5.22,0,0,0,27.75,37.28Zm-7.19,8.37-.2-.41a4.65,4.65,0,0,1,2.26-6.12l4.36-2,.19.41a4.6,4.6,0,0,1-2.23,6.11ZM19,48.07l-.63-1.35-.16-.38-.05-.07A1.19,1.19,0,0,1,18,46a1.78,1.78,0,0,1-.12.29l-.05.12.14.29v0l-.14.36.17.36.53,1.13v0l.14.29a.37.37,0,0,1,.14-.19s0,0,0,0,0-.05,0-.05l.15.31a.75.75,0,0,1,.21-.26l-.14-.29Zm-.77-7.77v0A.56.56,0,0,1,18.4,40a3,3,0,0,1,.52-.84,1.27,1.27,0,0,1,.2-.31.6.6,0,0,1,.24-.21v0l-.15-.31-.09-.19L19.07,38a.88.88,0,0,0-.22.21,3.27,3.27,0,0,0-.24.27,9.73,9.73,0,0,0-.57.81c.05.1.12.19.17.31a2,2,0,0,0-.2.34v0a1.71,1.71,0,0,0-.16.29,3.17,3.17,0,0,1,.19.46A.81.81,0,0,1,18.23,40.3Zm11.72-4-1-2.18-.14-.34-.15-.31-.16-.36-7.15,3.31A7.5,7.5,0,0,0,19.07,38v0a.88.88,0,0,0-.22.21,3.27,3.27,0,0,0-.24.27,9.73,9.73,0,0,0-.57.81c-.07.1-.12.22-.19.34a1.14,1.14,0,0,0-.17.33,7.55,7.55,0,0,0-.07,6.55l.09.21.17.36.17.36.53,1.13v0l.14.29v0l.14.26v0l.22.48,7.17-3.31a7.62,7.62,0,0,0,2.32-1.66c.07-.09.15-.16.22-.26a.73.73,0,0,0,.21-.26,7.48,7.48,0,0,0,1.2-2.11A7.56,7.56,0,0,0,30,36.25ZM19.38,48.88l-.1-.21-.14-.29L19,48.07l-.63-1.35-.16-.38-.05-.07A1.19,1.19,0,0,1,18,46a6.78,6.78,0,0,1,0-5.27.81.81,0,0,1,.19-.41v0A.56.56,0,0,1,18.4,40a3,3,0,0,1,.52-.84,1.27,1.27,0,0,1,.2-.31.6.6,0,0,1,.24-.21v0a6.52,6.52,0,0,1,2.23-1.65l6.59-3.05,0,.08.15.28.14.32.91,1.94a7,7,0,0,1-.69,7.09,1,1,0,0,1-.22.27,1.33,1.33,0,0,1-.21.26A7,7,0,0,1,26,45.84ZM27.29,36.3l-4.94,2.27a5.22,5.22,0,0,0-2.54,6.91l.46,1,4.94-2.28a5.29,5.29,0,0,0,2.68-2.92,5.22,5.22,0,0,0-.14-4Zm-6.73,9.35-.2-.41a4.65,4.65,0,0,1,2.26-6.12l4.36-2,.19.41a4.6,4.6,0,0,1-2.23,6.11Zm-1.35-7.39-.09-.19L19.07,38a.88.88,0,0,0-.22.21,3.27,3.27,0,0,0-.24.27,9.73,9.73,0,0,0-.57.81c.05.1.12.19.17.31a2,2,0,0,0-.2.34v0h0a.12.12,0,0,1,0,0,.26.26,0,0,1,.07.1s0,0,0,.07l.05,0s0,0,0,.05A.56.56,0,0,1,18.4,40a3,3,0,0,1,.52-.84,1.27,1.27,0,0,1,.2-.31.6.6,0,0,1,.24-.21v0Zm-.07,10.12L19,48.07l-.63-1.35-.16-.38s0,0,0,0l-.05.12,0,0-.05.15,0,0,0,0v0l-.14.36.17.36.53,1.13v0l.14.29a.37.37,0,0,1,.14-.19s0,0,0,0,0-.05,0-.05l.15.31a.75.75,0,0,1,.21-.26Zm-.38-9.57a3,3,0,0,0-.55.79,2,2,0,0,0-.2.34v0a1.71,1.71,0,0,0-.16.29,3.17,3.17,0,0,1,.19.46.81.81,0,0,1,.19-.41v0A.56.56,0,0,1,18.4,40a3,3,0,0,1,.52-.84Zm9-1.53-.46-1-4.94,2.27a5.22,5.22,0,0,0-2.54,6.91l.46,1,4.94-2.28a5.29,5.29,0,0,0,2.68-2.92A5.22,5.22,0,0,0,27.75,37.28Zm-7.19,8.37-.2-.41a4.65,4.65,0,0,1,2.26-6.12l4.36-2,.19.41a4.6,4.6,0,0,1-2.23,6.11Zm-2.35-6a2,2,0,0,0-.2.34v0a1.71,1.71,0,0,0-.16.29,3.17,3.17,0,0,1,.19.46.81.81,0,0,1,.19-.41v0A.56.56,0,0,1,18.4,40a3,3,0,0,1,.52-.84l-.16-.31A3,3,0,0,0,18.21,39.6ZM18,46a1.78,1.78,0,0,1-.12.29l-.05.12.14.29,0,0,0,0,.05-.15,0,0,.05-.12s0,0,0,0l-.05-.07A1.19,1.19,0,0,1,18,46Zm1.17-7.72a2.72,2.72,0,0,0-.24.24v0s0,0,0,0,0,0,0,0a0,0,0,0,0,0,0l0,0a.4.4,0,0,0-.09.15l-.15-.31a9.73,9.73,0,0,0-.57.81c.05.1.12.19.17.31a2,2,0,0,0-.2.34v0h0a.12.12,0,0,1,0,0,.26.26,0,0,1,.07.1s0,0,0,.07l.05,0s0,0,0,.05A.56.56,0,0,1,18.4,40a3,3,0,0,1,.52-.84,1.27,1.27,0,0,1,.2-.31.6.6,0,0,1,.24-.21v0Zm-.45.55a3,3,0,0,0-.55.79,2,2,0,0,0-.2.34v0a1.71,1.71,0,0,0-.16.29,3.17,3.17,0,0,1,.19.46.81.81,0,0,1,.19-.41v0A.56.56,0,0,1,18.4,40a3,3,0,0,1,.52-.84Zm9-1.53-.46-1-4.94,2.27a5.22,5.22,0,0,0-2.54,6.91l.46,1,4.94-2.28a5.29,5.29,0,0,0,2.68-2.92A5.22,5.22,0,0,0,27.75,37.28Zm-7.19,8.37-.2-.41a4.65,4.65,0,0,1,2.26-6.12l4.36-2,.19.41a4.6,4.6,0,0,1-2.23,6.11Zm-2.35-6a2,2,0,0,0-.2.34v0a1.71,1.71,0,0,0-.16.29,3.17,3.17,0,0,1,.19.46.81.81,0,0,1,.19-.41v0A.56.56,0,0,1,18.4,40a3,3,0,0,1,.52-.84l-.16-.31A3,3,0,0,0,18.21,39.6ZM18,46a1.78,1.78,0,0,1-.12.29l-.05.12.14.29,0,0,0,0,.05-.15,0,0,.05-.12s0,0,0,0l-.05-.07A1.19,1.19,0,0,1,18,46Zm1.17-7.72a2.72,2.72,0,0,0-.24.24v0s0,0,0,0,0,0,0,0a0,0,0,0,0,0,0l0,0a.4.4,0,0,0-.09.15l-.15-.31a9.73,9.73,0,0,0-.57.81c.05.1.12.19.17.31a2,2,0,0,0-.2.34v0h0a.12.12,0,0,1,0,0,.26.26,0,0,1,.07.1s0,0,0,.07l.05,0s0,0,0,.05A.56.56,0,0,1,18.4,40a3,3,0,0,1,.52-.84,1.27,1.27,0,0,1,.2-.31.6.6,0,0,1,.24-.21v0Z"/><path class="cls-1" d="M16.84,49.3,10,46.12a7.36,7.36,0,0,1-3.57-9.75l1.35-2.91,6.87,3.18a7.34,7.34,0,0,1,3.57,9.75ZM8.93,36.7l-.33.7A4.9,4.9,0,0,0,11,43.9l4.66,2.16.32-.7a4.91,4.91,0,0,0-2.39-6.5Z"/><path class="cls-1" d="M18,39.29a10,10,0,0,0-.6-.81l-.15.33a1,1,0,0,0-.21-.28l-.12.28.19.27v0a4.1,4.1,0,0,1,.53.84,3.09,3.09,0,0,1,.17.29A1.71,1.71,0,0,1,18,40v0a2,2,0,0,1,.2-.34C18.16,39.48,18.09,39.39,18,39.29Zm-4.34-.72L8.78,36.3l-.45,1a5.18,5.18,0,0,0-.17,4,5.24,5.24,0,0,0,2.71,2.92l4.91,2.28.46-1A5.21,5.21,0,0,0,13.7,38.57Zm-2.59,5.06A4.67,4.67,0,0,1,8.74,41a4.57,4.57,0,0,1,.14-3.52l.19-.41,4.39,2a4.61,4.61,0,0,1,2.23,6.12l-.19.41ZM18,39.29a10,10,0,0,0-.6-.81l-.15.33a1,1,0,0,0-.21-.28l-.12.28.19.27v0a4.1,4.1,0,0,1,.53.84,3.09,3.09,0,0,1,.17.29A1.71,1.71,0,0,1,18,40v0a2,2,0,0,1,.2-.34C18.16,39.48,18.09,39.39,18,39.29Zm-4.34-.72L8.78,36.3l-.45,1a5.18,5.18,0,0,0-.17,4,5.24,5.24,0,0,0,2.71,2.92l4.91,2.28.46-1A5.21,5.21,0,0,0,13.7,38.57Zm-2.59,5.06A4.67,4.67,0,0,1,8.74,41a4.57,4.57,0,0,1,.14-3.52l.19-.41,4.39,2a4.61,4.61,0,0,1,2.23,6.12l-.19.41ZM18,39.29a10,10,0,0,0-.6-.81l-.15.33a1,1,0,0,0-.21-.28.82.82,0,0,0-.22-.24.73.73,0,0,0-.19-.2s0,0,0,0a.86.86,0,0,0-.19-.19l-.08-.07a3,3,0,0,0-.26-.24l-.41-.32c-.09,0-.17-.12-.26-.16a2.39,2.39,0,0,0-.22-.12s-.05,0-.07,0h0s0,0,0,0-.33-.19-.5-.26L7.73,33.47l-.1.21a.84.84,0,0,0,.22.24l0-.05,6.62,3.05a7.12,7.12,0,0,1,2.23,1.65,1.81,1.81,0,0,0,.24.24l.19.27v0a4.1,4.1,0,0,1,.53.84,3.09,3.09,0,0,1,.17.29A1.71,1.71,0,0,1,18,40v0a2,2,0,0,1,.2-.34C18.16,39.48,18.09,39.39,18,39.29Zm-.34,7.43-.65,1.37-.12.29-.14.29a3.28,3.28,0,0,1,.22.26l.14-.31s0,0,0,.05a.55.55,0,0,1,.15.21h0l.17-.26v0c-.1-.1-.14-.17-.22-.24l.58-1.25.14-.36v0l-.14-.29Zm-4-8.15L8.78,36.3l-.45,1a5.18,5.18,0,0,0-.17,4,5.24,5.24,0,0,0,2.71,2.92l4.91,2.28.46-1A5.21,5.21,0,0,0,13.7,38.57Zm-2.59,5.06A4.67,4.67,0,0,1,8.74,41a4.57,4.57,0,0,1,.14-3.52l.19-.41,4.39,2a4.61,4.61,0,0,1,2.23,6.12l-.19.41ZM18.4,40a3.13,3.13,0,0,0-.19-.36c-.05-.12-.12-.21-.17-.31a10,10,0,0,0-.6-.81.84.84,0,0,0-.22-.24A.69.69,0,0,0,17,38h0a6.49,6.49,0,0,0-2.25-1.63L7.58,33.06l-.16.33-.15.34L7.13,34l-1,2.21a7.57,7.57,0,0,0,1,8,3,3,0,0,0,.21.26,1.74,1.74,0,0,0,.22.24,7.71,7.71,0,0,0,2.35,1.68L17,49.7l.22-.48.14-.31v0l.17-.26v0L18,47.44l.17-.36.16-.36.1-.21A7.55,7.55,0,0,0,18.4,40ZM18,46a1.78,1.78,0,0,1-.12.29l-.05.12-.17.33-.65,1.37-.12.29-.14.29-.09.21-6.6-3a6.89,6.89,0,0,1-2.32-1.73v0a.71.71,0,0,1-.22-.24,2.61,2.61,0,0,1-.22-.27,7,7,0,0,1-.91-1.7,7,7,0,0,1,.24-5.39l.91-2,.12-.29L7.85,34v0l0-.05,6.62,3.05a7.12,7.12,0,0,1,2.23,1.65,1.81,1.81,0,0,0,.24.24l.19.27v0a4.1,4.1,0,0,1,.53.84,3.09,3.09,0,0,1,.17.29,3.17,3.17,0,0,1,.19.46A6.92,6.92,0,0,1,18,46ZM13.7,38.57,8.78,36.3l-.45,1a5.18,5.18,0,0,0-.17,4,5.24,5.24,0,0,0,2.71,2.92l4.91,2.28.46-1A5.21,5.21,0,0,0,13.7,38.57Zm-2.59,5.06A4.67,4.67,0,0,1,8.74,41a4.57,4.57,0,0,1,.14-3.52l.19-.41,4.39,2a4.61,4.61,0,0,1,2.23,6.12l-.19.41Zm7.1-3.4s-.05,0-.05,0,0,0,0-.07a.61.61,0,0,0-.07-.1.12.12,0,0,0,0,0h0v0a2,2,0,0,1,.2-.34c-.05-.12-.12-.21-.17-.31a10,10,0,0,0-.6-.81.84.84,0,0,0-.22-.24A.69.69,0,0,0,17,38h0a6.49,6.49,0,0,0-2.25-1.63L7.58,33.06l-.16.33a.6.6,0,0,1,.09.15.5.5,0,0,1,.12.14.84.84,0,0,0,.22.24l0-.05,6.62,3.05a7.12,7.12,0,0,1,2.23,1.65,1.81,1.81,0,0,0,.24.24l.19.27v0a4.1,4.1,0,0,1,.53.84,3.09,3.09,0,0,1,.17.29,3.17,3.17,0,0,1,.19.46.81.81,0,0,1,.19-.41v0A.12.12,0,0,1,18.21,40.23ZM18,39.29a10,10,0,0,0-.6-.81l-.15.33a1,1,0,0,0-.21-.28l-.12.28.19.27v0a4.1,4.1,0,0,1,.53.84,3.09,3.09,0,0,1,.17.29A1.71,1.71,0,0,1,18,40v0a2,2,0,0,1,.2-.34C18.16,39.48,18.09,39.39,18,39.29Zm-4.34-.72L8.78,36.3l-.45,1a5.18,5.18,0,0,0-.17,4,5.24,5.24,0,0,0,2.71,2.92l4.91,2.28.46-1A5.21,5.21,0,0,0,13.7,38.57Zm-2.59,5.06A4.67,4.67,0,0,1,8.74,41a4.57,4.57,0,0,1,.14-3.52l.19-.41,4.39,2a4.61,4.61,0,0,1,2.23,6.12l-.19.41ZM18,39.29a10,10,0,0,0-.6-.81l-.15.33a1,1,0,0,0-.21-.28l-.12.28.19.27v0a4.1,4.1,0,0,1,.53.84,3.09,3.09,0,0,1,.17.29A1.71,1.71,0,0,1,18,40v0a2,2,0,0,1,.2-.34C18.16,39.48,18.09,39.39,18,39.29Zm-4.34-.72L8.78,36.3l-.45,1a5.18,5.18,0,0,0-.17,4,5.24,5.24,0,0,0,2.71,2.92l4.91,2.28.46-1A5.21,5.21,0,0,0,13.7,38.57Zm-2.59,5.06A4.67,4.67,0,0,1,8.74,41a4.57,4.57,0,0,1,.14-3.52l.19-.41,4.39,2a4.61,4.61,0,0,1,2.23,6.12l-.19.41ZM18,46.72l0,0,.05-.15,0,0,.05-.12s0,0,0,0l-.05-.07A1.19,1.19,0,0,1,18,46a1.78,1.78,0,0,1-.12.29l-.05.12-.17.33-.65,1.37-.12.29-.14.29a3.28,3.28,0,0,1,.22.26l.14-.31s0,0,0,.05a.55.55,0,0,1,.15.21h0l.17-.26v0L18,47.44l.17-.36-.1-.21Zm0-7.43a10,10,0,0,0-.6-.81l-.15.33a1,1,0,0,0-.21-.28l-.12.28.19.27v0a4.1,4.1,0,0,1,.53.84,3.09,3.09,0,0,1,.17.29A1.71,1.71,0,0,1,18,40v0a2,2,0,0,1,.2-.34C18.16,39.48,18.09,39.39,18,39.29Zm-4.34-.72L8.78,36.3l-.45,1a5.18,5.18,0,0,0-.17,4,5.24,5.24,0,0,0,2.71,2.92l4.91,2.28.46-1A5.21,5.21,0,0,0,13.7,38.57Zm-2.59,5.06A4.67,4.67,0,0,1,8.74,41a4.57,4.57,0,0,1,.14-3.52l.19-.41,4.39,2a4.61,4.61,0,0,1,2.23,6.12l-.19.41ZM18,39.29a10,10,0,0,0-.6-.81l-.15.33a1,1,0,0,0-.21-.28l-.12.28.19.27v0a4.1,4.1,0,0,1,.53.84,3.09,3.09,0,0,1,.17.29A1.71,1.71,0,0,1,18,40v0a2,2,0,0,1,.2-.34C18.16,39.48,18.09,39.39,18,39.29Zm-4.34-.72L8.78,36.3l-.45,1a5.18,5.18,0,0,0-.17,4,5.24,5.24,0,0,0,2.71,2.92l4.91,2.28.46-1A5.21,5.21,0,0,0,13.7,38.57Zm-2.59,5.06A4.67,4.67,0,0,1,8.74,41a4.57,4.57,0,0,1,.14-3.52l.19-.41,4.39,2a4.61,4.61,0,0,1,2.23,6.12l-.19.41Zm7.05,2.64A1.19,1.19,0,0,1,18,46a1.78,1.78,0,0,1-.12.29l-.05.12.14.29v0h0l0,0,.05-.15,0,0,.05-.12s0,0,0,0Zm.05-6s-.05,0-.05,0,0,0,0-.07a.61.61,0,0,0-.07-.1.12.12,0,0,0,0,0h0v0a2,2,0,0,1,.2-.34c-.05-.12-.12-.21-.17-.31a10,10,0,0,0-.6-.81l-.15.33a1,1,0,0,0-.21-.28.82.82,0,0,0-.22-.24.73.73,0,0,0-.19-.2s0,0,0,0a.86.86,0,0,0-.19-.19l-.08-.07a3,3,0,0,0-.26-.24l-.41-.32c-.09,0-.17-.12-.26-.16a2.39,2.39,0,0,0-.22-.12s-.05,0-.07,0h0s0,0,0,0-.33-.19-.5-.26L7.73,33.47l-.1.21a.84.84,0,0,0,.22.24l0-.05,6.62,3.05a7.12,7.12,0,0,1,2.23,1.65,1.81,1.81,0,0,0,.24.24l.19.27v0a4.1,4.1,0,0,1,.53.84,3.09,3.09,0,0,1,.17.29,3.17,3.17,0,0,1,.19.46.81.81,0,0,1,.19-.41v0A.12.12,0,0,1,18.21,40.23ZM18,39.29a10,10,0,0,0-.6-.81l-.15.33a1,1,0,0,0-.21-.28l-.12.28.19.27v0a4.1,4.1,0,0,1,.53.84,3.09,3.09,0,0,1,.17.29A1.71,1.71,0,0,1,18,40v0a2,2,0,0,1,.2-.34C18.16,39.48,18.09,39.39,18,39.29Zm-4.34-.72L8.78,36.3l-.45,1a5.18,5.18,0,0,0-.17,4,5.24,5.24,0,0,0,2.71,2.92l4.91,2.28.46-1A5.21,5.21,0,0,0,13.7,38.57Zm-2.59,5.06A4.67,4.67,0,0,1,8.74,41a4.57,4.57,0,0,1,.14-3.52l.19-.41,4.39,2a4.61,4.61,0,0,1,2.23,6.12l-.19.41ZM18,39.29a10,10,0,0,0-.6-.81l-.15.33a1,1,0,0,0-.21-.28l-.12.28.19.27v0a4.1,4.1,0,0,1,.53.84,3.09,3.09,0,0,1,.17.29A1.71,1.71,0,0,1,18,40v0a2,2,0,0,1,.2-.34C18.16,39.48,18.09,39.39,18,39.29Zm-4.34-.72L8.78,36.3l-.45,1a5.18,5.18,0,0,0-.17,4,5.24,5.24,0,0,0,2.71,2.92l4.91,2.28.46-1A5.21,5.21,0,0,0,13.7,38.57Zm-2.59,5.06A4.67,4.67,0,0,1,8.74,41a4.57,4.57,0,0,1,.14-3.52l.19-.41,4.39,2a4.61,4.61,0,0,1,2.23,6.12l-.19.41Zm7.1-3.4s-.05,0-.05,0,0,0,0-.07a.61.61,0,0,0-.07-.1.12.12,0,0,0,0,0h0v0a2,2,0,0,1,.2-.34c-.05-.12-.12-.21-.17-.31a10,10,0,0,0-.6-.81l-.15.33a1,1,0,0,0-.21-.28.82.82,0,0,0-.22-.24.73.73,0,0,0-.19-.2s0,0,0,0a.86.86,0,0,0-.19-.19l-.08-.07a3,3,0,0,0-.26-.24l-.41-.32c-.09,0-.17-.12-.26-.16a2.39,2.39,0,0,0-.22-.12s-.05,0-.07,0h0s0,0,0,0-.33-.19-.5-.26L7.73,33.47l-.1.21a.84.84,0,0,0,.22.24l0-.05,6.62,3.05a7.12,7.12,0,0,1,2.23,1.65,1.81,1.81,0,0,0,.24.24l.19.27v0a4.1,4.1,0,0,1,.53.84,3.09,3.09,0,0,1,.17.29,3.17,3.17,0,0,1,.19.46.81.81,0,0,1,.19-.41v0A.12.12,0,0,1,18.21,40.23Z"/><path class="cls-1" d="M18.57,48.57a5.57,5.57,0,0,0-.53.72c-.17-.24-.34-.48-.53-.7L18,47.44Z"/><path class="cls-1" d="M19.23,39.06l-1.35-2.91a7.35,7.35,0,0,1,3.57-9.75l6.88-3.18,1.35,2.91a7.36,7.36,0,0,1-3.58,9.75Zm7.91-12.6-4.66,2.16a4.91,4.91,0,0,0-2.39,6.5l.33.7,4.65-2.16a4.91,4.91,0,0,0,2.39-6.5Z"/><path class="cls-1" d="M18.85,28.46h0a.75.75,0,0,0-.19.24v0a3.63,3.63,0,0,0-.43.62,1.22,1.22,0,0,1-.17-.29,1.8,1.8,0,0,0-.17.34,1,1,0,0,0-.19.34.7.7,0,0,1,.17.28,2.29,2.29,0,0,0-.17.46s0,0,0,.05,0,0,0,0a3.6,3.6,0,0,0-.16.5s0,.05,0,.1a.67.67,0,0,0-.05.19v0a1,1,0,0,0-.07.33s0,0,0,0a0,0,0,0,0,0,0,3.27,3.27,0,0,0-.07.68,2.48,2.48,0,0,0-.05.62,7.08,7.08,0,0,0,.17,1.58.1.1,0,0,0,0,0,.8.8,0,0,0,.07.31.07.07,0,0,0,0,.07v0l0,0a1.61,1.61,0,0,0,.1.36.54.54,0,0,0,0,.12s0,.1.08.14a1,1,0,0,0,.09.27c0,.05,0,.07.05.12l.05-.12a1.78,1.78,0,0,0,.12-.29,6.74,6.74,0,0,1,0-5.25.74.74,0,0,1,.19-.41s0,0,0,0a.51.51,0,0,1,.17-.31,2.1,2.1,0,0,1,.38-.68.77.77,0,0,1,.22-.26v0ZM27.75,27l-.46-1-4.94,2.28a5.21,5.21,0,0,0-2.54,6.9l.46,1L25.21,34A5.26,5.26,0,0,0,27.75,27Zm-7.19,8.39-.2-.41a4.64,4.64,0,0,1,2.26-6.11l4.36-2,.19.41a4.59,4.59,0,0,1-2.23,6.11Zm-1.73-6.95a.75.75,0,0,0-.19.24v0a3.63,3.63,0,0,0-.43.62,1.22,1.22,0,0,1-.17-.29,1.8,1.8,0,0,0-.17.34,1,1,0,0,0-.19.34.7.7,0,0,1,.17.28,2.29,2.29,0,0,0-.17.46s0,0,0,.05,0,0,0,0a3.6,3.6,0,0,0-.16.5s0,.05,0,.1a.67.67,0,0,0-.05.19v0a1,1,0,0,0-.07.33s0,0,0,0a0,0,0,0,0,0,0,3.27,3.27,0,0,0-.07.68,2.48,2.48,0,0,0-.05.62,7.08,7.08,0,0,0,.17,1.58.1.1,0,0,0,0,0,.8.8,0,0,0,.07.31.07.07,0,0,0,0,.07v0l0,0a1.61,1.61,0,0,0,.1.36.54.54,0,0,0,0,.12s0,.1.08.14a1,1,0,0,0,.09.27c0,.05,0,.07.05.12l.05-.12a1.78,1.78,0,0,0,.12-.29,6.74,6.74,0,0,1,0-5.25.74.74,0,0,1,.19-.41s0,0,0,0a.51.51,0,0,1,.17-.31,2.1,2.1,0,0,1,.38-.68.77.77,0,0,1,.22-.26v0l-.15-.31ZM27.75,27l-.46-1-4.94,2.28a5.21,5.21,0,0,0-2.54,6.9l.46,1L25.21,34A5.26,5.26,0,0,0,27.75,27Zm-7.19,8.39-.2-.41a4.64,4.64,0,0,1,2.26-6.11l4.36-2,.19.41a4.59,4.59,0,0,1-2.23,6.11Zm-1.44,2.66L19.07,38v0l-.7-1.51-.16-.36L18.16,36a1.19,1.19,0,0,1-.12-.29,6.74,6.74,0,0,1,0-5.25.74.74,0,0,1,.19-.41s0,0,0,0a.51.51,0,0,1,.17-.31,2.1,2.1,0,0,1,.38-.68.77.77,0,0,1,.22-.26v0a2.2,2.2,0,0,1,.33-.41l0,0a6.42,6.42,0,0,1,2.23-1.66l5.2-2.42a3,3,0,0,0,.43-.53l-5.78,2.66a7.29,7.29,0,0,0-2.4,1.8l-.12-.29-.21.22c-.07.1-.14.17-.22.29v0a7,7,0,0,0-.45.62,1.8,1.8,0,0,0-.17.34,1,1,0,0,0-.19.34,7.53,7.53,0,0,0-.07,6.54l.09.22v0l.17.34.17.36.57,1.27.15.31a.4.4,0,0,1,.09-.15l0,0a0,0,0,0,1,0,0s0,0,0,0,0,0,0,0l.15.28a.6.6,0,0,1,.24-.21v0l-.15-.31ZM30,26l-1.48-3.16v0L28,23l-.46.22h0l-6.24,2.9a7.21,7.21,0,0,0-2.4,1.77l-.21.22c-.07.1-.14.17-.22.29v0a7,7,0,0,0-.45.62,1.8,1.8,0,0,0-.17.34,1,1,0,0,0-.19.34,7.53,7.53,0,0,0-.07,6.54l.09.22v0l.17.34.17.36.57,1.27.15.31v0l.16.31.15.34,7.17-3.31a7.68,7.68,0,0,0,2.25-1.6l.22-.24.21-.24A7.65,7.65,0,0,0,30,26ZM19.38,38.64l0,0v0l-.15-.31-.09-.19L19.07,38v0l-.7-1.51-.16-.36L18.16,36a1.19,1.19,0,0,1-.12-.29,6.74,6.74,0,0,1,0-5.25.74.74,0,0,1,.19-.41s0,0,0,0a.51.51,0,0,1,.17-.31,2.1,2.1,0,0,1,.38-.68.77.77,0,0,1,.22-.26v0a2.2,2.2,0,0,1,.33-.41l0,0a6.42,6.42,0,0,1,2.23-1.66l5.2-2.42.62-.29h0l.57-.29.17-.07,1.22,2.64a7,7,0,0,1-.77,7.17c0,.09-.14.19-.19.29a1.36,1.36,0,0,1-.24.24A6.52,6.52,0,0,1,26,35.6ZM27.75,27l-.46-1-4.94,2.28a5.21,5.21,0,0,0-2.54,6.9l.46,1L25.21,34A5.26,5.26,0,0,0,27.75,27Zm-7.19,8.39-.2-.41a4.64,4.64,0,0,1,2.26-6.11l4.36-2,.19.41a4.59,4.59,0,0,1-2.23,6.11Zm-1.4-7L19,28.19l-.12-.29-.21.22c-.07.1-.14.17-.22.29v0a7,7,0,0,0-.45.62,1.8,1.8,0,0,0-.17.34,1,1,0,0,0-.19.34.7.7,0,0,1,.17.28,1.86,1.86,0,0,1,.19.46.74.74,0,0,1,.19-.41s0,0,0,0a.51.51,0,0,1,.17-.31,2.1,2.1,0,0,1,.38-.68.77.77,0,0,1,.22-.26v0a2.2,2.2,0,0,1,.33-.41Zm.05,9.83-.09-.19L19.07,38v0l-.7-1.51-.16-.36L18.16,36a1.19,1.19,0,0,1-.12-.29,1.78,1.78,0,0,1-.12.29l-.05.12c0-.05-.05-.07-.05-.12a1,1,0,0,1-.09-.27.19.19,0,0,1-.08-.14.28.28,0,0,1,0-.12,1.61,1.61,0,0,1-.1-.36l0,0v0a.07.07,0,0,1,0-.07.8.8,0,0,1-.07-.31l0,0a7.08,7.08,0,0,1-.17-1.58,2.68,2.68,0,0,1,.05-.62,3.27,3.27,0,0,1,.07-.68l0,0s0,0,0,0a1,1,0,0,1,.07-.33v0a.67.67,0,0,1,.05-.19c0-.05,0-.07,0-.1a3.6,3.6,0,0,1,.16-.5s0,0,0,0a.07.07,0,0,1,0-.05,2.29,2.29,0,0,1,.17-.46.7.7,0,0,0-.17-.28,7.53,7.53,0,0,0-.07,6.54l.09.22v0l.17.34.17.36.57,1.27.15.31v0l.16.31a1.27,1.27,0,0,1,.2-.31.6.6,0,0,1,.24-.21v0Zm-.36-9.8h0a.75.75,0,0,0-.19.24v0a3.63,3.63,0,0,0-.43.62,1.22,1.22,0,0,1-.17-.29,1.8,1.8,0,0,0-.17.34,1,1,0,0,0-.19.34.7.7,0,0,1,.17.28,2.29,2.29,0,0,0-.17.46s0,0,0,.05,0,0,0,0a3.6,3.6,0,0,0-.16.5s0,.05,0,.1a.67.67,0,0,0-.05.19v0a1,1,0,0,0-.07.33s0,0,0,0a0,0,0,0,0,0,0,3.27,3.27,0,0,0-.07.68,2.48,2.48,0,0,0-.05.62,7.08,7.08,0,0,0,.17,1.58.1.1,0,0,0,0,0,.8.8,0,0,0,.07.31.07.07,0,0,0,0,.07v0l0,0a1.61,1.61,0,0,0,.1.36.54.54,0,0,0,0,.12s0,.1.08.14a1,1,0,0,0,.09.27c0,.05,0,.07.05.12l.05-.12a1.78,1.78,0,0,0,.12-.29,6.74,6.74,0,0,1,0-5.25.74.74,0,0,1,.19-.41s0,0,0,0a.51.51,0,0,1,.17-.31,2.1,2.1,0,0,1,.38-.68.77.77,0,0,1,.22-.26v0ZM27.75,27l-.46-1-4.94,2.28a5.21,5.21,0,0,0-2.54,6.9l.46,1L25.21,34A5.26,5.26,0,0,0,27.75,27Zm-7.19,8.39-.2-.41a4.64,4.64,0,0,1,2.26-6.11l4.36-2,.19.41a4.59,4.59,0,0,1-2.23,6.11Zm-1.73-6.95a.75.75,0,0,0-.19.24v0a3.63,3.63,0,0,0-.43.62,1.22,1.22,0,0,1-.17-.29,1.8,1.8,0,0,0-.17.34,1,1,0,0,0-.19.34.7.7,0,0,1,.17.28,2.29,2.29,0,0,0-.17.46s0,0,0,.05,0,0,0,0a3.6,3.6,0,0,0-.16.5s0,.05,0,.1a.67.67,0,0,0-.05.19v0a1,1,0,0,0-.07.33s0,0,0,0a0,0,0,0,0,0,0,3.27,3.27,0,0,0-.07.68,2.48,2.48,0,0,0-.05.62,7.08,7.08,0,0,0,.17,1.58.1.1,0,0,0,0,0,.8.8,0,0,0,.07.31.07.07,0,0,0,0,.07v0l0,0a1.61,1.61,0,0,0,.1.36.54.54,0,0,0,0,.12s0,.1.08.14a1,1,0,0,0,.09.27c0,.05,0,.07.05.12l.05-.12a1.78,1.78,0,0,0,.12-.29,6.74,6.74,0,0,1,0-5.25.74.74,0,0,1,.19-.41s0,0,0,0a.51.51,0,0,1,.17-.31,2.1,2.1,0,0,1,.38-.68.77.77,0,0,1,.22-.26v0l-.15-.31Zm-1,7.55a1,1,0,0,1-.09-.27.19.19,0,0,1-.08-.14.28.28,0,0,1,0-.12,1.61,1.61,0,0,1-.1-.36l0,0v0a.07.07,0,0,1,0-.07.8.8,0,0,1-.07-.31l0,0a7.08,7.08,0,0,1-.17-1.58,2.68,2.68,0,0,1,.05-.62,3.27,3.27,0,0,1,.07-.68l0,0s0,0,0,0a1,1,0,0,1,.07-.33v0a.67.67,0,0,1,.05-.19c0-.05,0-.07,0-.1a3.6,3.6,0,0,1,.16-.5s0,0,0,0a.07.07,0,0,1,0-.05,2.29,2.29,0,0,1,.17-.46.7.7,0,0,0-.17-.28,7.53,7.53,0,0,0-.07,6.54l.09.22.17-.34v0C17.85,36.08,17.82,36.06,17.82,36Zm.34,0a1.19,1.19,0,0,1-.12-.29,1.78,1.78,0,0,1-.12.29l-.05.12c0-.05-.05-.07-.05-.12a1,1,0,0,1-.09-.27.19.19,0,0,1-.08-.14.28.28,0,0,1,0-.12,1.61,1.61,0,0,1-.1-.36l0,0v0a.07.07,0,0,1,0-.07.8.8,0,0,1-.07-.31l0,0a7.08,7.08,0,0,1-.17-1.58,2.68,2.68,0,0,1,.05-.62,3.27,3.27,0,0,1,.07-.68l0,0s0,0,0,0a1,1,0,0,1,.07-.33v0a.67.67,0,0,1,.05-.19c0-.05,0-.07,0-.1a3.6,3.6,0,0,1,.16-.5s0,0,0,0a.07.07,0,0,1,0-.05,2.29,2.29,0,0,1,.17-.46.7.7,0,0,0-.17-.28,7.53,7.53,0,0,0-.07,6.54l.09.22.17-.34.1.22,0,.09v0h0v0l.05-.09.09-.22s0,0,0,0Zm1-7.58L19,28.19l-.12-.29-.21.22c-.07.1-.14.17-.22.29v0a7,7,0,0,0-.45.62,1.8,1.8,0,0,0-.17.34,1,1,0,0,0-.19.34.7.7,0,0,1,.17.28,1.86,1.86,0,0,1,.19.46.74.74,0,0,1,.19-.41s0,0,0,0a.51.51,0,0,1,.17-.31,2.1,2.1,0,0,1,.38-.68.77.77,0,0,1,.22-.26v0a2.2,2.2,0,0,1,.33-.41Zm-.31,0h0a.75.75,0,0,0-.19.24v0a3.63,3.63,0,0,0-.43.62,1.22,1.22,0,0,1-.17-.29,1.8,1.8,0,0,0-.17.34,1,1,0,0,0-.19.34.7.7,0,0,1,.17.28,2.29,2.29,0,0,0-.17.46s0,0,0,.05,0,0,0,0a3.6,3.6,0,0,0-.16.5s0,.05,0,.1a.67.67,0,0,0-.05.19v0a1,1,0,0,0-.07.33s0,0,0,0a0,0,0,0,0,0,0,3.27,3.27,0,0,0-.07.68,2.48,2.48,0,0,0-.05.62,7.08,7.08,0,0,0,.17,1.58.1.1,0,0,0,0,0,.8.8,0,0,0,.07.31.07.07,0,0,0,0,.07v0l0,0a1.61,1.61,0,0,0,.1.36.54.54,0,0,0,0,.12s0,.1.08.14a1,1,0,0,0,.09.27c0,.05,0,.07.05.12l.05-.12a1.78,1.78,0,0,0,.12-.29,6.74,6.74,0,0,1,0-5.25.74.74,0,0,1,.19-.41s0,0,0,0a.51.51,0,0,1,.17-.31,2.1,2.1,0,0,1,.38-.68.77.77,0,0,1,.22-.26v0ZM27.75,27l-.46-1-4.94,2.28a5.21,5.21,0,0,0-2.54,6.9l.46,1L25.21,34A5.26,5.26,0,0,0,27.75,27Zm-7.19,8.39-.2-.41a4.64,4.64,0,0,1,2.26-6.11l4.36-2,.19.41a4.59,4.59,0,0,1-2.23,6.11Zm-1.73-6.95a.75.75,0,0,0-.19.24v0a3.63,3.63,0,0,0-.43.62,1.22,1.22,0,0,1-.17-.29,1.8,1.8,0,0,0-.17.34,1,1,0,0,0-.19.34.7.7,0,0,1,.17.28,2.29,2.29,0,0,0-.17.46s0,0,0,.05,0,0,0,0a3.6,3.6,0,0,0-.16.5s0,.05,0,.1a.67.67,0,0,0-.05.19v0a1,1,0,0,0-.07.33s0,0,0,0a0,0,0,0,0,0,0,3.27,3.27,0,0,0-.07.68,2.48,2.48,0,0,0-.05.62,7.08,7.08,0,0,0,.17,1.58.1.1,0,0,0,0,0,.8.8,0,0,0,.07.31.07.07,0,0,0,0,.07v0l0,0a1.61,1.61,0,0,0,.1.36.54.54,0,0,0,0,.12s0,.1.08.14a1,1,0,0,0,.09.27c0,.05,0,.07.05.12l.05-.12a1.78,1.78,0,0,0,.12-.29,6.74,6.74,0,0,1,0-5.25.74.74,0,0,1,.19-.41s0,0,0,0a.51.51,0,0,1,.17-.31,2.1,2.1,0,0,1,.38-.68.77.77,0,0,1,.22-.26v0l-.15-.31Zm.33,0L19,28.19a1.58,1.58,0,0,0-.12.15,0,0,0,0,0,0,0s0,0,0,0l0,.05h0l0-.14-.05-.1,0-.07c-.07.1-.14.17-.22.29v0a7,7,0,0,0-.45.62,1.8,1.8,0,0,0-.17.34,1,1,0,0,0-.19.34.7.7,0,0,1,.17.28,1.86,1.86,0,0,1,.19.46.74.74,0,0,1,.19-.41s0,0,0,0a.51.51,0,0,1,.17-.31,2.1,2.1,0,0,1,.38-.68.77.77,0,0,1,.22-.26v0a2.2,2.2,0,0,1,.33-.41Z"/><path class="cls-1" d="M16.84,39.06,10,35.88a7.36,7.36,0,0,1-3.57-9.75l1.35-2.91,6.87,3.18a7.34,7.34,0,0,1,3.57,9.75ZM8.93,26.46l-.33.7A4.91,4.91,0,0,0,11,33.66l4.66,2.16.32-.7a4.91,4.91,0,0,0-2.39-6.5Z"/><path class="cls-1" d="M17.56,28.43l-.15.29v0l-.14.29a3.12,3.12,0,0,1,.41.7,1,1,0,0,1,.19-.34,1.8,1.8,0,0,1,.17-.34A4.68,4.68,0,0,0,17.56,28.43Zm-3.86-.09L8.78,26.06l-.45,1A5.24,5.24,0,0,0,10.87,34l4.91,2.27.46-1A5.19,5.19,0,0,0,13.7,28.34Zm-2.59,5.05a4.63,4.63,0,0,1-2.23-6.11l.19-.41,4.39,2A4.6,4.6,0,0,1,15.69,35l-.19.41Zm6.45-5v0a1.31,1.31,0,0,0-.19-.27l-.15.29h0a.72.72,0,0,0-.19-.24l-.12.24-.12-.05a3.18,3.18,0,0,0,.31.34v0a2.4,2.4,0,0,1,.19.29,3.12,3.12,0,0,1,.41.7,1,1,0,0,1,.19-.34,1.8,1.8,0,0,1,.17-.34A4.68,4.68,0,0,0,17.56,28.43Zm-3.86-.09L8.78,26.06l-.45,1A5.24,5.24,0,0,0,10.87,34l4.91,2.27.46-1A5.19,5.19,0,0,0,13.7,28.34Zm-2.59,5.05a4.63,4.63,0,0,1-2.23-6.11l.19-.41,4.39,2A4.6,4.6,0,0,1,15.69,35l-.19.41Zm6.45-5v0a1.31,1.31,0,0,0-.19-.27l-.24-.24a7.21,7.21,0,0,0-2.4-1.77l-6.26-2.9c.12.19.22.33.34.5s.26.34.38.48l0,0,5.28,2.44a7.17,7.17,0,0,1,2.28,1.7,3.18,3.18,0,0,0,.31.34v0a2.4,2.4,0,0,1,.19.29,3.12,3.12,0,0,1,.41.7,1,1,0,0,1,.19-.34,1.8,1.8,0,0,1,.17-.34A4.68,4.68,0,0,0,17.56,28.43Zm-.84,10.14a1.81,1.81,0,0,0,.24.24l.12-.28a.82.82,0,0,0-.22-.24Zm-3-10.23L8.78,26.06l-.45,1A5.24,5.24,0,0,0,10.87,34l4.91,2.27.46-1A5.19,5.19,0,0,0,13.7,28.34Zm-2.59,5.05a4.63,4.63,0,0,1-2.23-6.11l.19-.41,4.39,2A4.6,4.6,0,0,1,15.69,35l-.19.41Zm7.29-3.66a2,2,0,0,0-.19-.39,1.22,1.22,0,0,1-.17-.29,4.68,4.68,0,0,0-.48-.62v0a1.31,1.31,0,0,0-.19-.27l-.24-.24a7.21,7.21,0,0,0-2.4-1.77l-6.26-2.9,0,0L8,23l-.41-.19L6.1,26a7.64,7.64,0,0,0,1,8,1,1,0,0,0,.21.24.78.78,0,0,0,.24.24,6.87,6.87,0,0,0,2.26,1.63L17,39.46l.17-.34v0l.14-.24v0l.15-.33.6-1.27.17-.36.16-.39.1-.19A7.53,7.53,0,0,0,18.4,29.73Zm-.36,6a1.78,1.78,0,0,1-.12.29l-.05.12v0l-.17.34v0L17,38h0l-.12.29-.14.28,0,.07-6.6-3A6.8,6.8,0,0,1,7.85,34v0a.84.84,0,0,1-.22-.24.5.5,0,0,0-.12-.14,1.13,1.13,0,0,1-.09-.15,7,7,0,0,1-.75-7.14l1.2-2.64.19.1.51.24h0l.6.26,0,0,5.28,2.44a7.17,7.17,0,0,1,2.28,1.7,3.18,3.18,0,0,0,.31.34v0a2.4,2.4,0,0,1,.19.29,3.12,3.12,0,0,1,.41.7.7.7,0,0,1,.17.28,1.86,1.86,0,0,1,.19.46A6.87,6.87,0,0,1,18,35.72ZM13.7,28.34,8.78,26.06l-.45,1A5.24,5.24,0,0,0,10.87,34l4.91,2.27.46-1A5.19,5.19,0,0,0,13.7,28.34Zm-2.59,5.05a4.63,4.63,0,0,1-2.23-6.11l.19-.41,4.39,2A4.6,4.6,0,0,1,15.69,35l-.19.41Zm6.45-5-.15.29v0l-.14.29a3.12,3.12,0,0,1,.41.7,1,1,0,0,1,.19-.34,1.8,1.8,0,0,1,.17-.34A4.68,4.68,0,0,0,17.56,28.43Zm-3.86-.09L8.78,26.06l-.45,1A5.24,5.24,0,0,0,10.87,34l4.91,2.27.46-1A5.19,5.19,0,0,0,13.7,28.34Zm-2.59,5.05a4.63,4.63,0,0,1-2.23-6.11l.19-.41,4.39,2A4.6,4.6,0,0,1,15.69,35l-.19.41Zm6.45-5v0a1.31,1.31,0,0,0-.19-.27l-.15.29h0a.72.72,0,0,0-.19-.24l-.12.24-.12-.05a3.18,3.18,0,0,0,.31.34v0a2.4,2.4,0,0,1,.19.29,3.12,3.12,0,0,1,.41.7,1,1,0,0,1,.19-.34,1.8,1.8,0,0,1,.17-.34A4.68,4.68,0,0,0,17.56,28.43Zm-3.86-.09L8.78,26.06l-.45,1A5.24,5.24,0,0,0,10.87,34l4.91,2.27.46-1A5.19,5.19,0,0,0,13.7,28.34Zm-2.59,5.05a4.63,4.63,0,0,1-2.23-6.11l.19-.41,4.39,2A4.6,4.6,0,0,1,15.69,35l-.19.41Zm5.75,4.9-.14.28a1.81,1.81,0,0,0,.24.24l.12-.28A.82.82,0,0,0,16.86,38.29ZM18,29.05a4.68,4.68,0,0,0-.48-.62v0a1.31,1.31,0,0,0-.19-.27l-.24-.24a7.21,7.21,0,0,0-2.4-1.77l-6.26-2.9,0,0L8,23c.1.17.17.31.27.46a5.66,5.66,0,0,0,.31.48h0l.6.26,0,0,5.28,2.44a7.17,7.17,0,0,1,2.28,1.7,3.18,3.18,0,0,0,.31.34v0a2.4,2.4,0,0,1,.19.29,3.12,3.12,0,0,1,.41.7.7.7,0,0,1,.17.28c0-.12.12-.21.16-.33a.77.77,0,0,0-.14-.29A1.8,1.8,0,0,1,18,29.05Zm-.48-.62-.15.29v0l-.14.29a3.12,3.12,0,0,1,.41.7,1,1,0,0,1,.19-.34,1.8,1.8,0,0,1,.17-.34A4.68,4.68,0,0,0,17.56,28.43Zm-3.86-.09L8.78,26.06l-.45,1A5.24,5.24,0,0,0,10.87,34l4.91,2.27.46-1A5.19,5.19,0,0,0,13.7,28.34Zm-2.59,5.05a4.63,4.63,0,0,1-2.23-6.11l.19-.41,4.39,2A4.6,4.6,0,0,1,15.69,35l-.19.41Zm6.45-5v0a1.31,1.31,0,0,0-.19-.27l-.15.29h0a.72.72,0,0,0-.19-.24l-.12.24-.12-.05a3.18,3.18,0,0,0,.31.34v0a2.4,2.4,0,0,1,.19.29,3.12,3.12,0,0,1,.41.7,1,1,0,0,1,.19-.34,1.8,1.8,0,0,1,.17-.34A4.68,4.68,0,0,0,17.56,28.43Zm-3.86-.09L8.78,26.06l-.45,1A5.24,5.24,0,0,0,10.87,34l4.91,2.27.46-1A5.19,5.19,0,0,0,13.7,28.34Zm-2.59,5.05a4.63,4.63,0,0,1-2.23-6.11l.19-.41,4.39,2A4.6,4.6,0,0,1,15.69,35l-.19.41ZM18,29.05a4.68,4.68,0,0,0-.48-.62v0a1.31,1.31,0,0,0-.19-.27l-.24-.24a7.21,7.21,0,0,0-2.4-1.77l-6.26-2.9c.12.19.22.33.34.5s.26.34.38.48l0,0,5.28,2.44a7.17,7.17,0,0,1,2.28,1.7,3.18,3.18,0,0,0,.31.34v0a2.4,2.4,0,0,1,.19.29,3.12,3.12,0,0,1,.41.7.7.7,0,0,1,.17.28c0-.12.12-.21.16-.33a.77.77,0,0,0-.14-.29A1.8,1.8,0,0,1,18,29.05Zm-.48-.62-.15.29v0l-.14.29a3.12,3.12,0,0,1,.41.7,1,1,0,0,1,.19-.34,1.8,1.8,0,0,1,.17-.34A4.68,4.68,0,0,0,17.56,28.43Zm-3.86-.09L8.78,26.06l-.45,1A5.24,5.24,0,0,0,10.87,34l4.91,2.27.46-1A5.19,5.19,0,0,0,13.7,28.34Zm-2.59,5.05a4.63,4.63,0,0,1-2.23-6.11l.19-.41,4.39,2A4.6,4.6,0,0,1,15.69,35l-.19.41Zm6.45-5v0a1.31,1.31,0,0,0-.19-.27l-.15.29h0a.72.72,0,0,0-.19-.24l-.12.24-.12-.05a3.18,3.18,0,0,0,.31.34v0a2.4,2.4,0,0,1,.19.29,3.12,3.12,0,0,1,.41.7,1,1,0,0,1,.19-.34,1.8,1.8,0,0,1,.17-.34A4.68,4.68,0,0,0,17.56,28.43Zm-3.86-.09L8.78,26.06l-.45,1A5.24,5.24,0,0,0,10.87,34l4.91,2.27.46-1A5.19,5.19,0,0,0,13.7,28.34Zm-2.59,5.05a4.63,4.63,0,0,1-2.23-6.11l.19-.41,4.39,2A4.6,4.6,0,0,1,15.69,35l-.19.41ZM18,29.05a4.68,4.68,0,0,0-.48-.62v0a1.31,1.31,0,0,0-.19-.27l-.24-.24a7.21,7.21,0,0,0-2.4-1.77l-6.26-2.9c.12.19.22.33.34.5s.26.34.38.48l0,0,5.28,2.44a7.17,7.17,0,0,1,2.28,1.7,3.18,3.18,0,0,0,.31.34v0a2.4,2.4,0,0,1,.19.29,3.12,3.12,0,0,1,.41.7.7.7,0,0,1,.17.28c0-.12.12-.21.16-.33a.77.77,0,0,0-.14-.29A1.8,1.8,0,0,1,18,29.05Z"/><path class="cls-1" d="M18.61,38.48a9.73,9.73,0,0,0-.57.81,10,10,0,0,0-.6-.81l.6-1.27Z"/><path class="cls-1" d="M19,28.83l-1-2.1A7.35,7.35,0,0,1,21.63,17l5.63-2.6,1,2.1a7.36,7.36,0,0,1-3.57,9.75Zm7-11.21L22.65,19.2a4.9,4.9,0,0,0-2.43,6.39L23.63,24A4.91,4.91,0,0,0,26.07,17.62Z"/><path class="cls-1" d="M18.88,19.22a1.31,1.31,0,0,1-.46.12,1.91,1.91,0,0,0-.24.32,2,2,0,0,0-.14.26v0s0,0,0,0a.87.87,0,0,0-.14.29,1.8,1.8,0,0,0-.17.34c.05.14.12.28.17.43v0a7.17,7.17,0,0,0,0,5.18,2.19,2.19,0,0,0,.17-.41,6.85,6.85,0,0,1,0-4.34,1,1,0,0,1,.17-.43v0a.79.79,0,0,1,.16-.39v0a3.56,3.56,0,0,1,.39-.72,1.57,1.57,0,0,1,.28-.41,1.92,1.92,0,0,1,.39-.5A2.16,2.16,0,0,1,18.88,19.22Zm7.48-1.72-.15-.29-3.69,1.7a5.26,5.26,0,0,0-2.59,6.81l.12.29,3.72-1.73A5.24,5.24,0,0,0,26.36,17.5Zm-6,7.67a4.57,4.57,0,0,1,2.39-5.68L25.9,18a4.63,4.63,0,0,1-2.4,5.7Zm-2-5.83a1.91,1.91,0,0,0-.24.32,2,2,0,0,0-.14.26v0s0,0,0,0a.87.87,0,0,0-.14.29,1.8,1.8,0,0,0-.17.34c.05.14.12.28.17.43v0a7.17,7.17,0,0,0,0,5.18,2.19,2.19,0,0,0,.17-.41,6.85,6.85,0,0,1,0-4.34,1,1,0,0,1,.17-.43v0a.79.79,0,0,1,.16-.39v0a3.56,3.56,0,0,1,.39-.72,1.57,1.57,0,0,1,.28-.41,1.92,1.92,0,0,1,.39-.5,2.16,2.16,0,0,1-.55.21A1.31,1.31,0,0,1,18.42,19.34Zm3.19-2,.14-.07.36-.17a3.39,3.39,0,0,0,.27-.43l-.48.21-.27.12a2.09,2.09,0,0,0-.28.17,6.47,6.47,0,0,0-2.47,2.06,1.31,1.31,0,0,1-.46.12,1.91,1.91,0,0,0-.24.32,2,2,0,0,0-.14.26v0s0,0,0,0a.87.87,0,0,0-.14.29,1.8,1.8,0,0,0-.17.34c.05.14.12.28.17.43v0a7.17,7.17,0,0,0,0,5.18c.05.14.1.26.17.41s0,.05,0,.07l-.14.31.17.36.45,1c.08-.12.15-.19.22-.29l.14.34a.56.56,0,0,1,.19-.27l-.12-.29-.57-1.24,0-.05-.15-.34a2.16,2.16,0,0,1-.14-.43,6.85,6.85,0,0,1,0-4.34,1,1,0,0,1,.17-.43v0a.79.79,0,0,1,.16-.39v0a3.56,3.56,0,0,1,.39-.72,1.57,1.57,0,0,1,.28-.41,1.92,1.92,0,0,1,.39-.5,6.53,6.53,0,0,1,1.51-1.3A6.15,6.15,0,0,1,21.61,17.33Zm4.75.17-.15-.29-3.69,1.7a5.26,5.26,0,0,0-2.59,6.81l.12.29,3.72-1.73A5.24,5.24,0,0,0,26.36,17.5Zm-6,7.67a4.57,4.57,0,0,1,2.39-5.68L25.9,18a4.63,4.63,0,0,1-2.4,5.7Zm8.13-8.82L27.41,14,22.59,16.2l-.43.2-.5.24-.17.07a7.4,7.4,0,0,0-3.07,2.63,1.91,1.91,0,0,0-.24.32,2,2,0,0,0-.14.26v0s0,0,0,0a.87.87,0,0,0-.14.29,1.8,1.8,0,0,0-.17.34,7.47,7.47,0,0,0,0,6,1.46,1.46,0,0,1,.07.19l.1.19.17.36.45,1v0l.15.29.14.33.1.2,5.89-2.74A7.53,7.53,0,0,0,28,23.68a2.61,2.61,0,0,0,.24-.43,1.31,1.31,0,0,0,.22-.4A7.62,7.62,0,0,0,28.52,16.35Zm-1,6.88a3.69,3.69,0,0,1-.34.5,3,3,0,0,1-.43.53,6.78,6.78,0,0,1-2.25,1.68l-5.18,2.4,0,0-.17.07L19,28.19l-.12-.29-.57-1.24,0-.05-.15-.34a2.16,2.16,0,0,1-.14-.43,6.85,6.85,0,0,1,0-4.34,1,1,0,0,1,.17-.43v0a.79.79,0,0,1,.16-.39v0a3.56,3.56,0,0,1,.39-.72,1.57,1.57,0,0,1,.28-.41,1.92,1.92,0,0,1,.39-.5,6.53,6.53,0,0,1,1.51-1.3,6.15,6.15,0,0,1,.67-.38l.14-.07.36-.17,5-2.3L28,16.61a7,7,0,0,1-.38,6.62Zm-1.35-6-3.69,1.7a5.26,5.26,0,0,0-2.59,6.81l.12.29,3.72-1.73a5.24,5.24,0,0,0,2.59-6.78Zm-5.82,8a4.57,4.57,0,0,1,2.39-5.68L25.9,18a4.63,4.63,0,0,1-2.4,5.7Z"/><path class="cls-1" d="M17,28.83l-5.63-2.6a7.35,7.35,0,0,1-3.58-9.75l1-2.11L14.43,17A7.36,7.36,0,0,1,18,26.73ZM10,17.62A4.89,4.89,0,0,0,12.42,24l3.42,1.58A4.91,4.91,0,0,0,13.4,19.2Z"/><path class="cls-1" d="M17.7,20l-.21-.34a2.6,2.6,0,0,0-.27-.38,2.36,2.36,0,0,0,.43.09,7.56,7.56,0,0,0-3.09-2.63l-.17-.07a3.06,3.06,0,0,0,.32.5c.14.21.28.41.43.6A6.16,6.16,0,0,1,16.62,19a5.34,5.34,0,0,1,.43.5v0a2.66,2.66,0,0,1,.24.38h0c.12.22.26.46.38.7a1.8,1.8,0,0,1,.17-.34Zm-4.17-1.06-3.69-1.7-.12.29a5.11,5.11,0,0,0-.12,3.86,5.2,5.2,0,0,0,2.68,2.92L16,26l.12-.29a5.26,5.26,0,0,0-2.59-6.81Zm-1,4.82a4.59,4.59,0,0,1-2.38-2.59,4.5,4.5,0,0,1,0-3.11l3.12,1.46a4.49,4.49,0,0,1,2.39,2.56,4.64,4.64,0,0,1,0,3.12ZM17.7,20l-.21-.34a2.6,2.6,0,0,0-.27-.38,2.36,2.36,0,0,0,.43.09,7.56,7.56,0,0,0-3.09-2.63l-.17-.07a3.06,3.06,0,0,0,.32.5L14.42,17l-.24-.12a2.63,2.63,0,0,0,.31.48,7.45,7.45,0,0,1,.65.39A6.16,6.16,0,0,1,16.62,19a5.34,5.34,0,0,1,.43.5v0a2.66,2.66,0,0,1,.24.38h0c.12.22.26.46.38.7a1.8,1.8,0,0,1,.17-.34Zm-4.17-1.06-3.69-1.7-.12.29a5.11,5.11,0,0,0-.12,3.86,5.2,5.2,0,0,0,2.68,2.92L16,26l.12-.29a5.26,5.26,0,0,0-2.59-6.81Zm-1,4.82a4.59,4.59,0,0,1-2.38-2.59,4.5,4.5,0,0,1,0-3.11l3.12,1.46a4.49,4.49,0,0,1,2.39,2.56,4.64,4.64,0,0,1,0,3.12Zm5.46,3s0-.05,0-.07-.12-.27-.17-.41c-.05.12-.1.24-.14.36l0,.05-.57,1.24-.12.29a.79.79,0,0,1,.21.27.83.83,0,0,1,.19.26l.15-.31.48-1L17.87,27Zm-1-7.19a2.66,2.66,0,0,1,.24.38h0c.12.22.26.46.38.7a1.8,1.8,0,0,1,.17-.34L17.7,20l-.21-.34a2.6,2.6,0,0,0-.27-.38,2.36,2.36,0,0,0,.43.09,7.56,7.56,0,0,0-3.09-2.63l-.17-.07-.48-.22c.08.14.17.31.27.45l-.51-.21L8.81,14.38l-1,2.11a7.37,7.37,0,0,0-.24,5.61c.12.31.27.63.41.91l.46.19A9.14,9.14,0,0,1,7.87,22a7,7,0,0,1,.22-5.37L9,14.79l5,2.3.36.17c.07,0,.12.07.19.09a7.45,7.45,0,0,1,.65.39A6.16,6.16,0,0,1,16.62,19a5.34,5.34,0,0,1,.43.5Zm-3.52-.63-3.69-1.7-.12.29a5.11,5.11,0,0,0-.12,3.86,5.2,5.2,0,0,0,2.68,2.92L16,26l.12-.29a5.26,5.26,0,0,0-2.59-6.81Zm-1,4.82a4.59,4.59,0,0,1-2.38-2.59,4.5,4.5,0,0,1,0-3.11l3.12,1.46a4.49,4.49,0,0,1,2.39,2.56,4.64,4.64,0,0,1,0,3.12Zm6-2.73c-.05-.12-.1-.24-.15-.34v0a1.89,1.89,0,0,0-.16-.36L18.06,20s0,0,0,0v0c-.05-.1-.1-.17-.15-.26a2.22,2.22,0,0,0-.24-.32,7.56,7.56,0,0,0-3.09-2.63l-.17-.07-.48-.22-.45-.22L8.64,14l-1.1,2.38A7.7,7.7,0,0,0,7.3,22.2a2.88,2.88,0,0,0,.28.62,1.62,1.62,0,0,0,.22.46c.07.14.17.28.26.43a7.44,7.44,0,0,0,3.22,2.8l5.89,2.74.1-.22.14-.31.15-.31.48-1,.17-.38.07-.17c0-.07,0-.12.07-.19A7.59,7.59,0,0,0,18.52,21Zm-.79,5.61,0,.05-.57,1.24-.12.29-.12.24-.12-.05-5.25-2.44a7,7,0,0,1-2.31-1.7l0,0c-.12-.14-.26-.31-.38-.48s-.22-.31-.34-.5l0,0A9.14,9.14,0,0,1,7.87,22a7,7,0,0,1,.22-5.37L9,14.79l5,2.3.36.17c.07,0,.12.07.19.09a7.45,7.45,0,0,1,.65.39A6.16,6.16,0,0,1,16.62,19a5.34,5.34,0,0,1,.43.5v0a2.66,2.66,0,0,1,.24.38h0c.12.22.26.46.38.7s.12.28.17.43v0l.07.14c0,.1.07.2.1.29a7.14,7.14,0,0,1,0,4.34,2.19,2.19,0,0,1-.17.41C17.82,26.37,17.77,26.49,17.73,26.61Zm-4.2-7.7-3.69-1.7-.12.29a5.11,5.11,0,0,0-.12,3.86,5.2,5.2,0,0,0,2.68,2.92L16,26l.12-.29a5.26,5.26,0,0,0-2.59-6.81Zm-1,4.82a4.59,4.59,0,0,1-2.38-2.59,4.5,4.5,0,0,1,0-3.11l3.12,1.46a4.49,4.49,0,0,1,2.39,2.56,4.64,4.64,0,0,1,0,3.12Z"/><path class="cls-1" d="M18.49,28.41v0a7,7,0,0,0-.45.62,7.62,7.62,0,0,0-.48-.64l.48-1Z"/></svg>