<svg id="Layer_1" data-name="Layer 1" xmlns="http://www.w3.org/2000/svg" viewBox="0 0 463 435"><defs><style>.cls-1{fill:#b04b33;}.cls-2{fill:#73311b;}.cls-3{fill:#fff;}</style></defs><path class="cls-1" d="M224,210,91.27,113.57c32-44,78.36-67.63,132.73-67.63Z"/><path class="cls-2" d="M231,225V60.94A164.06,164.06,0,1,1,66.94,225c0-36.24,10-67.11,31.33-96.43Z"/><path class="cls-3" d="M154.16,118.12v-15.6a7.16,7.16,0,0,1-4.56,1.65v-3.54c2.52-.33,4.38-1.17,5.85-4.41H159v21.9Z"/><path class="cls-3" d="M168.92,118.48a10.71,10.71,0,0,1-7-2.67l2.58-3.24a7.07,7.07,0,0,0,4.44,1.71,3.79,3.79,0,0,0,3.72-3.87,3.45,3.45,0,0,0-3.42-3.69,4.75,4.75,0,0,0-3.78,2.28l-2.79-1,1.2-11.73h12v3.9h-8.4l-.42,3.87a5.55,5.55,0,0,1,3.9-1.17c3.78,0,6.48,2.91,6.48,7.59A8.22,8.22,0,0,1,168.92,118.48Z"/><path class="cls-3" d="M184.1,107.17c-2.13,0-4.5-1.86-4.5-5.64,0-3.21,2-5.67,4.59-5.67s4.53,2.55,4.53,5.58C188.72,104.68,186.77,107.17,184.1,107.17Zm.57,11h-4.23l15-21.9h4.23Zm-.51-19.62c-1.11,0-1.47,1.47-1.47,3s.3,3,1.41,3,1.5-1.5,1.5-3S185.27,98.5,184.16,98.5Zm11.91,20c-2.13,0-4.5-1.86-4.5-5.64,0-3.21,2-5.67,4.59-5.67s4.53,2.55,4.53,5.58C200.69,116,198.74,118.48,196.07,118.48Zm.06-8.67c-1.11,0-1.47,1.47-1.47,3s.3,3,1.41,3,1.5-1.5,1.5-3S197.24,109.81,196.13,109.81Z"/></svg>